<?xml version="1.0" standalone="no"?><!DOCTYPE svg PUBLIC "-//W3C//DTD SVG 1.1//EN" "http://www.w3.org/Graphics/SVG/1.1/DTD/svg11.dtd"><svg t="1625666118316" class="icon" viewBox="0 0 1024 1024" version="1.1" xmlns="http://www.w3.org/2000/svg" p-id="17578" xmlns:xlink="http://www.w3.org/1999/xlink" width="200" height="200"><defs><style type="text/css"></style></defs><path fill="#111222" d="M903.406933 522.615467c48.827733-72.772267 84.599467-149.845333 91.6992-236.3904-32.597333 36.864-66.798933 72.260267-104.4992 104.3968-34.4576 32.802133-81.442133 39.202133-133.000533 36.061867-64.733867 1.1776-126.020267-20.2752-182.493867-73.489067 37.393067-13.585067 34.235733-35.7888 25.429333-69.8368-9.437867-36.573867 4.864-90.350933 22.869333-146.8416-65.1776 31.146667-118.152533 93.576533-168.584533 162.5088-67.140267 4.232533-132.898133 16.247467-197.188267 36.437333-53.691733 23.0912-102.144 57.429333-148.872533 91.5968-16.810667 12.288-33.621333 21.6576-50.056533 34.525867-20.548267 16.093867-39.611733 30.1568-40.567467 57.9072C17.698133 532.0192 17.493333 537.7024 17.066667 550.1952c8.977067 1.518933 13.073067 7.2192 13.806933 15.752533L22.9888 565.947733c8.874667 38.536533 21.504 69.239467 42.3936 82.7392 63.214933 56.9856 139.537067 93.832533 231.697067 106.376533 80.520533 8.482133 155.3408-1.774933 221.832533-39.406933 20.992 67.805867 48.008533 117.8112 83.797333 141.824 3.328-64.3584-6.468267-125.0816 80.8448-212.736 31.6928-22.6304 60.2112-46.4896 51.268267-84.701867 49.425067-0.648533 151.825067 86.357333 272.110933 202.888533C983.7568 681.898667 951.6032 601.617067 903.406933 522.615467zM107.485867 526.6432c-10.939733 0-19.797333-10.376533-19.797333-23.176533s8.874667-23.176533 19.797333-23.176533 19.797333 10.376533 19.797333 23.176533S118.4256 526.6432 107.485867 526.6432z" p-id="17579"></path></svg>