<svg version="1.1" xmlns="http://www.w3.org/2000/svg" xmlns:xlink="http://www.w3.org/1999/xlink" width="240" height="120"  xml:space="preserve" id="canvas1">
    <path id="canvas1-bezier" stroke="none" fill="rgb(223, 232, 244)" d="M 49.63,13.88 L 49.76,14.06 C 52.59,18.12 56.48,21.32 61.01,23.34 L 60.82,23.25 C 62.95,24.11 65.37,23.08 66.23,20.96 66.34,20.69 66.42,20.41 66.47,20.12 L 66.53,19.83 C 67.05,17.14 67.31,14.41 67.31,11.67 L 67.31,11.73 C 67.31,8.89 67.01,6.06 66.42,3.28 L 66.44,3.35 C 66.09,1.12 63.99,-0.4 61.76,-0.05 61.43,0 61.1,0.1 60.8,0.23 L 60.81,0.22 C 56.4,2.18 52.58,5.28 49.74,9.19 L 49.61,9.37 C 48.65,10.73 48.67,12.56 49.65,13.91 L 49.63,13.88 Z M 49.63,63.38 L 49.5,63.2 C 52.34,67.25 56.23,70.46 60.75,72.47 L 60.82,72.5 C 62.92,73.39 65.34,72.42 66.23,70.32 66.33,70.08 66.41,69.82 66.47,69.56 L 66.52,69.3 C 67.05,66.59 67.31,63.84 67.31,61.08 L 67.31,61.14 C 67.31,58.3 67.01,55.47 66.42,52.69 L 66.44,52.75 C 66.01,50.55 63.88,49.11 61.68,49.54 61.37,49.6 61.08,49.69 60.8,49.82 L 60.69,49.87 C 56.21,51.86 52.35,55.04 49.54,59.06 L 49.62,58.95 C 48.67,60.3 48.69,62.09 49.65,63.42 L 49.63,63.38 Z M 49.63,63.38" />
    <path id="canvas1-bezier2" stroke="none" fill="rgb(7, 149, 255)" d="M 109.97,25.44 L 109.97,25.42 C 109.5,22.77 106.97,21 104.32,21.47 103.9,21.54 103.49,21.67 103.11,21.85 L 102.94,21.93 C 101.17,22.71 99.47,23.64 97.84,24.69 L 98.13,24.51 C 95.71,26.14 92.5,25.88 90.37,23.9 L 90.1,23.64 C 66.88,1.22 29.89,1.86 7.47,25.08 5.11,27.53 2.96,30.18 1.06,33 L 1.34,32.58 C -0.27,34.88 -0.29,37.93 1.28,40.26 L 1.11,40.01 C 19.14,66.75 55.44,73.81 82.19,55.77 85.01,53.87 87.65,51.72 90.1,49.36 L 90.38,49.08 C 92.44,47.03 95.65,46.66 98.12,48.2 L 98.43,48.41 C 100.06,49.51 101.78,50.47 103.58,51.27 L 103.14,51.07 C 105.58,52.16 108.44,51.06 109.53,48.61 109.69,48.25 109.81,47.87 109.88,47.48 L 109.87,47.51 C 111.42,40.23 111.42,32.71 109.87,25.42 L 109.97,25.44 Z M 109.97,25.44" />
    <path id="canvas1-bezier3" stroke="none" fill="rgb(204, 216, 229)" d="M 41.31,38.56 L 41.39,38.67 C 44.08,42.37 47.69,45.29 51.86,47.15 L 51.85,47.15 C 53.82,47.98 56.09,47.06 56.93,45.09 57.03,44.86 57.1,44.63 57.15,44.38 L 57.12,44.55 C 58.2,39.45 58.25,34.17 57.25,29.05 L 57.16,28.58 C 56.75,26.5 54.74,25.14 52.65,25.54 52.39,25.59 52.13,25.67 51.89,25.78 L 51.8,25.81 C 47.53,27.72 43.85,30.75 41.17,34.58 L 41.31,34.37 C 40.43,35.63 40.43,37.31 41.31,38.57 L 41.31,38.56 Z M 41.31,38.56" />
    <circle id="canvas1-oval" stroke="none" fill="rgb(21, 108, 221)" cx="15.65" cy="31.9" r="3.15" />
</svg>