<svg version="1.1" xmlns="http://www.w3.org/2000/svg" xmlns:xlink="http://www.w3.org/1999/xlink" width="240" height="120"  xml:space="preserve" id="canvas1">
    <path id="canvas1-bezier2" stroke="none" fill="rgb(7, 149, 255)" d="M 49.49,13.92 C 52.33,17.92 56.19,21.08 60.68,23.05 61.81,23.54 63.1,23.5 64.2,22.93 65.29,22.36 66.07,21.32 66.3,20.11 67.47,14.57 67.47,8.84 66.3,3.3 66.06,2.09 65.28,1.06 64.19,0.49 63.1,-0.08 61.81,-0.13 60.68,0.36 56.2,2.34 52.33,5.49 49.49,9.48 48.55,10.81 48.55,12.59 49.49,13.92 L 49.49,13.92 Z M 49.49,63.33 C 52.34,67.31 56.21,70.46 60.68,72.45 61.84,72.94 63.15,72.87 64.25,72.26 65.35,71.65 66.11,70.57 66.3,69.33 67.47,63.8 67.47,58.08 66.3,52.55 66.11,51.31 65.35,50.23 64.25,49.62 63.15,49.01 61.84,48.94 60.68,49.42 56.14,51.52 52.27,54.83 49.49,58.98 48.61,60.3 48.61,62.01 49.49,63.33 L 49.49,63.33 Z M 49.49,63.33" />
    <path id="canvas1-bezier4" stroke="none" fill="rgb(21, 108, 221)" d="M 109.84,25.36 C 109.58,23.87 108.64,22.58 107.3,21.88 105.95,21.18 104.36,21.15 102.99,21.8 101.24,22.55 99.56,23.45 97.96,24.48 95.53,26.1 92.29,25.82 90.18,23.8 77.84,11.71 60.78,5.7 43.59,7.39 26.4,9.07 10.84,18.29 1.09,32.55 -0.51,34.86 -0.51,37.92 1.09,40.23 10.84,54.49 26.4,63.7 43.59,65.4 60.77,67.09 77.83,61.09 90.18,49.02 92.29,46.99 95.53,46.71 97.96,48.33 99.57,49.35 101.25,50.25 102.99,51.02 104.36,51.61 105.92,51.55 107.24,50.85 108.55,50.15 109.48,48.89 109.74,47.42 111.29,40.15 111.29,32.63 109.74,25.36 L 109.84,25.36 Z M 109.84,25.36" />
    <path id="canvas1-bezier6" stroke="none" fill="rgb(7, 149, 255)" d="M 41.18,38.48 C 43.87,42.24 47.51,45.21 51.74,47.08 52.81,47.53 54.02,47.48 55.05,46.95 56.07,46.41 56.8,45.43 57.02,44.3 58.11,39.08 58.11,33.7 57.02,28.48 56.79,27.35 56.06,26.39 55.04,25.85 54.02,25.31 52.81,25.26 51.74,25.7 47.52,27.58 43.88,30.55 41.18,34.3 40.3,35.55 40.3,37.23 41.18,38.48 L 41.18,38.48 Z M 41.18,38.48" />
    <path stroke="none" fill="rgb(255, 255, 255)" d="M12.35 31.7a3.15 3.1 0 1 0 6.3 0a3.15 3.1 0 1 0 -6.3 0z" />
</svg>