<?xml version="1.0" standalone="no"?><!DOCTYPE svg PUBLIC "-//W3C//DTD SVG 1.1//EN" "http://www.w3.org/Graphics/SVG/1.1/DTD/svg11.dtd"><svg t="1625579648366" class="icon" viewBox="0 0 1024 1024" version="1.1" xmlns="http://www.w3.org/2000/svg" p-id="5174" xmlns:xlink="http://www.w3.org/1999/xlink" width="200" height="200"><defs><style type="text/css"></style></defs><path d="M890.5 629.5c-2 0-4-0.6-5.6-1.9-3.9-3-7.4-8.3-12.3-15.7-9.4-14.3-23.7-35.8-45.1-44.2-1.7-0.7-3.5-1.4-5.4-2.3-13.3-5.6-29.7-12.7-48.1-0.1-11.4 7.8-22.6 15.8-34 23.8-7.1 5-14.2 10.1-21.4 15.1-4.2 2.9-10 1.9-12.9-2.3-2.9-4.2-1.9-10 2.3-12.9 7.2-5 14.2-10 21.3-15.1 11.4-8.1 22.8-16.2 34.3-24 26.8-18.2 51.2-7.8 65.8-1.6 1.7 0.7 3.4 1.4 4.9 2 15.1 5.9 26.9 16.3 36.2 27.1-6.9-36.6-11.6-88.4 4.7-129-14.5 11.6-31.4 24.5-47.7 34-20 11.6-39.6-3.6-50.2-11.7-1.7-1.3-3.3-2.5-4.6-3.5-2.9-2-7.4-5.6-13.7-10.7C724.9 429 645.1 364.6 563.6 346c-45.8-10.4-118.6-18.3-205.2 3.5-5 1.3-10-1.8-11.3-6.7s1.8-10 6.7-11.3c90.1-22.7 166-14.5 213.8-3.6 85.7 19.5 167.8 85.8 202.9 114.1 5.9 4.7 10.1 8.2 12.6 9.9 1.6 1.1 3.4 2.5 5.4 4 11.2 8.6 21.1 15.3 29.6 10.3 20.5-11.9 42.6-30 58.8-43.3 21.7-17.8 26.8-22 34-15.3 7.3 6.8 1.3 15.2-8.6 29.1-42.1 59.2-3.3 179.1-2.9 180.3 1.3 3.9-0.1 8.1-3.4 10.5-1.8 1.4-3.7 2-5.5 2zM665.9 637.1c-3.1 0-6.2-1.6-7.9-4.5-2.7-4.4-1.3-10.1 3.1-12.7l3.9-2.4c6.6-4 8.7-5.2 16.7-10.6 4.2-2.9 10-1.7 12.9 2.5 2.9 4.2 1.7 10-2.5 12.9-8.4 5.6-10.6 7-17.5 11.1l-3.9 2.3c-1.5 1-3.1 1.4-4.8 1.4zM466.7 696.8c-24.7 0-50.7-2.1-78.6-6.3-154.6-23.2-237.2-122.9-265.5-164.8-9.1-13.4-8.6-31.1 1.2-44.1 24.5-32.2 93.9-87.4 179.2-130.5 5.2-2.6 10.5-5.1 15.9-7.3 4.7-2 10.2 0.2 12.1 4.9 2 4.7-0.2 10.2-4.9 12.1-5 2.1-9.9 4.4-14.7 6.8-82 41.4-150.2 95.3-172.8 125.1-5.1 6.7-5.4 15.5-0.7 22.4 27 39.8 105.6 134.7 252.9 156.8 120.2 18 189.3-7.9 241-35.7 4.5-2.4 10.1-0.7 12.6 3.8 2.4 4.5 0.7 10.1-3.8 12.6-55.5 30-110.3 44.2-173.9 44.2z" fill="#6A3906" p-id="5175"></path><path d="M266.7 650.7c-1.8 0-3.7-0.5-5.3-1.7-4.2-2.9-5.2-8.7-2.3-12.9 100.5-143.4 35.6-220 3-246.3l-1.5-1.2c-3.9-3.3-4.4-9.1-1.2-13.1 3.3-3.9 9.1-4.4 13.1-1.2l1.2 1c36.6 29.6 110 115.2 0.6 271.4-1.8 2.7-4.7 4-7.6 4z" fill="#6A3906" p-id="5176"></path><path d="M234.8 500.2c-17.1 0-31-14-31-31.2s13.9-31.2 31-31.2 31 14 31 31.2-13.9 31.2-31 31.2z m0-43.9c-6.9 0-12.5 5.7-12.5 12.7 0 7 5.6 12.7 12.5 12.7s12.5-5.7 12.5-12.7c0-7-5.6-12.7-12.5-12.7zM297.7 659.2c-3.3 0-6.5-1.7-8.1-4.8-2.5-4.5-0.8-10.1 3.7-12.6 35.5-19.4 36.8-53.8 37.4-68.5 0.1-3.3 0.3-5.8 0.6-7.2 1-5 5.8-8.3 10.9-7.3 5 1 8.3 5.9 7.3 10.9-0.1 0.9-0.2 2.4-0.2 4.3-0.6 16.3-2.3 59.6-47 84.1-1.5 0.8-3.1 1.1-4.6 1.1z" fill="#6A3906" p-id="5177"></path><path d="M434.5 615.2h-0.4c-61.3-2.4-81-22.7-95.4-37.5l-3.1-3.2c-3.6-3.6-3.6-9.5 0-13.1s9.5-3.6 13.1 0l3.3 3.3c12.9 13.3 29 29.8 82.9 32 5.1 0.2 9.1 4.5 8.9 9.6-0.3 5-4.4 8.9-9.3 8.9z" fill="#6A3906" p-id="5178"></path><path d="M369.4 629.5c-23.3 0-38.4-4.7-41.1-5.6-4.8-1.6-7.4-6.9-5.8-11.8 1.6-4.8 6.9-7.4 11.8-5.8 14.8 5 51.3 9.4 94.3-6.1 4.8-1.8 10.1 0.8 11.9 5.6 1.7 4.8-0.8 10.1-5.6 11.9-25.4 9.1-47.9 11.8-65.5 11.8zM800.6 523.4c-3.5 0-7-2-8.5-5.3-2.1-4.5-0.4-9.8 4.1-12.1 2.6-1.3 5.9-2 10.4-3 7-1.6 16.7-3.7 24.6-8.4 5.8-3.4 11.6-7.5 16.8-11.1 12.5-8.7 20-14 27.1-8.1 3.9 3.3 4.5 9.1 1.2 13.1-1.9 2.3-4.6 3.4-7.3 3.3-2.3 1.3-6.9 4.5-10.4 6.9-5.4 3.8-11.5 8-18 11.8-10.5 6.2-22.2 8.8-30 10.5-2.4 0.5-5.4 1.2-6.2 1.6-1.3 0.6-2.5 0.8-3.8 0.8z m62.6-33.7c0 0.1 0 0.1 0 0 0 0.1 0 0.1 0 0z m0 0z" fill="#6A3906" p-id="5179"></path><path d="M822.8 538c-3 0-5.9-1.4-7.7-4.1-2.8-4.3-1.7-10 2.6-12.9 16.3-10.9 41.4-12.6 53.6-3.7 4.1 3 5 8.8 2 13-3 4.1-8.8 5-13 2-4.3-3.1-20.9-3.5-32.3 4.1-1.6 1.1-3.4 1.6-5.2 1.6zM610.4 414.3c-1.5 0-3-0.4-4.4-1.1-56-30.7-100.5-26.2-133-23-6 0.6-11.6 1.2-16.7 1.4-5.1 0.3-9.5-3.6-9.8-8.7-0.3-5.1 3.6-9.5 8.7-9.8 4.9-0.3 10.2-0.8 15.9-1.4 33-3.3 82.8-8.3 143.8 25.1 4.5 2.5 6.1 8.1 3.7 12.6-1.7 3.2-4.9 4.9-8.2 4.9z" fill="#6A3906" p-id="5180"></path></svg>