<svg version="1.1" xmlns="http://www.w3.org/2000/svg" xmlns:xlink="http://www.w3.org/1999/xlink" width="739" height="281" xml:space="preserve" id="canvas1">
    <path id="canvas1-bezier2" stroke="none" fill="rgb(163, 128, 133)" d="M 9.57,146.57 C 6.99,143.9 4.14,140.95 11.2,140.38 L 38.81,140.86 31.67,146.4 9.57,146.57 Z M 9.57,146.57" />
    <path id="canvas1-bezier4" stroke="none" fill="rgb(115, 79, 77)" d="M 294.17,229.85 C 294.17,229.85 309.81,275.85 337.75,281.17 L 342.11,276.96 340.26,224.44 294.17,229.85 Z M 573.38,179.06 L 507.41,199.87 549.87,236.25 557.6,236.39 593.62,190.74 593.84,186.19 573.38,179.06 573.38,179.06 Z M 279.84,45.76 C 279.84,45.76 327.83,2.67 347.63,0.12 L 359.75,2.26 394.75,38.51 373.18,47.67 279.84,45.76 Z M 739.02,42.73 L 734.94,39.34 642.25,110.93 647.08,142.64 641.15,174.17 731.28,248.95 735.48,245.71 715.3,143.83 739.02,42.73 739.02,42.73 Z M 739.02,42.73" />
    <path id="canvas1-bezier6" stroke="none" fill="rgb(173, 153, 153)" d="M 681.6,143.24 C 681.58,151.77 680.69,160.27 678.95,168.61 L 677.62,173.42 C 676.61,176.03 675.48,177.39 673.97,176.95 629.45,170.64 584.05,175.79 542.08,191.92 533.32,195.22 524.42,198.38 515.26,201.25 L 512.89,202.18 C 446.7,223.45 377.46,233.72 307.94,232.58 236.64,231.18 166.18,216.89 99.97,190.41 72.62,179.7 45.98,167.24 20.23,153.11 18.6,151.42 15.99,150.69 13.8,149.54 11.61,148.4 11.49,147.16 10.27,145.89 L 27.12,146.19 C 29.1,146.23 31.01,145.48 32.44,144.1 33.86,142.73 34.68,140.84 34.71,138.86 34.36,135.45 31.72,132.72 28.33,132.26 L 0.71,131.77 C 3.57,119.69 11.78,109.56 23.02,104.26 L 26.08,102.66 26.79,101.98 C 39.18,95.98 51.44,90.39 64.52,84.82 L 68.54,83.65 91.21,75.07 94.96,73.61 103.44,70.86 104.28,70.04 115.53,66.51 123.86,64.17 136.07,60.79 152.44,56.66 157.57,55.5 171.16,52.7 C 177.67,51.3 184.18,50.17 190.83,49.18 L 197.62,48.05 204.96,46.94 205.66,46.26 213.41,45.29 217.29,44.81 231.54,43.26 236.23,43.89 243.42,43.19 255.32,42.29 258.08,42.07 264.86,41.77 272.88,41.36 285.04,41.02 294.85,40.77 301.06,40.74 310.04,40.76 315.84,40.86 321.64,40.97 329.79,41.25 336.68,41.64 340.13,41.84 354.48,42.92 358.34,43.26 371.58,44.6 380.81,45.73 C 386.46,46.52 391.98,47.17 397.48,48.09 L 405.89,49.48 406.84,50.46 409.86,51.07 416.47,52.29 431.06,55.31 433.81,55.91 451.83,60.23 C 461.18,62.6 470.39,65.11 479.74,68.03 483.45,69.07 487.02,70.23 490.59,71.4 L 501.71,75.05 510.36,78.1 512.83,78.97 514.19,80.38 517.75,81.82 C 523.79,84.14 529.83,86.45 535.73,88.63 L 541.63,91.08 551.92,94.71 559.75,97.19 C 566.44,99.24 572.99,101.15 579.4,102.92 L 587.66,105 C 601.9,108.06 616.37,109.98 630.93,110.73 L 635.89,111.09 C 642.93,111.43 649.99,111.42 657.03,111.05 L 665.88,110.37 C 669.2,110.15 672.52,109.66 675.84,109.17 679.17,108.67 677.2,110.57 678.42,111.83 L 679.47,114.89 680.38,118.64 680.75,120.72 681.13,123.07 C 681.76,129.78 681.92,136.52 681.6,143.24 L 681.6,143.24 Z M 681.6,143.24" />
    <path id="canvas1-bezier8" stroke="none" fill="rgb(115, 79, 77)" d="M 545.76,91.7 C 556.96,75.18 589.8,69.26 594.34,85.78 598.89,102.3 572.73,97.42 572.62,104.05 572.5,110.68 545.76,91.7 545.76,91.7 L 545.76,91.7 Z M 545.76,91.7" />
    <path id="canvas1-bezier10" stroke="none" fill="rgb(207, 191, 194)" d="M 680.85,154.83 C 679.79,168.08 677.14,177.42 674.1,177.37 629.57,170.9 584.13,175.9 542.08,191.92 533.32,195.22 524.42,198.38 515.26,201.25 L 512.89,202.18 C 446.7,223.45 377.46,233.72 307.94,232.58 236.64,231.2 166.17,216.91 99.97,190.41 72.61,179.71 45.98,167.25 20.23,153.11 18.6,151.42 15.99,150.69 13.8,149.54 11.61,148.4 11.49,147.16 10.27,145.89 L 27.12,146.19 C 28.83,146.24 30.5,145.68 31.84,144.61 48.92,147.39 66.41,150.32 84.05,152.84 157.87,163.32 232.26,169.18 306.81,170.4 380.58,171.77 454.37,168.96 527.82,161.97 L 530.31,161.74 558.82,158.64 C 599.36,154.53 640.13,153.25 680.85,154.83 L 680.85,154.83 Z M 680.85,154.83" />
    <path id="canvas1-bezier12" stroke="none" fill="rgb(207, 191, 194)" d="M 129.88,130.58 C 129.39,154 118.41,175.96 99.97,190.41 72.62,179.7 45.98,167.24 20.23,153.11 18.6,151.42 15.99,150.69 13.8,149.54 11.61,148.4 11.49,147.16 10.27,145.89 L 27.12,146.19 C 31.24,146.26 34.63,142.98 34.71,138.86 34.78,134.74 31.5,131.34 27.38,131.27 L -0.24,130.79 C 1.41,121.77 6.69,113.82 14.37,108.81 L 17.18,106.09 23.02,104.26 26.08,102.66 26.79,101.98 C 52.02,89.61 78.1,79.03 104.83,70.33 111.79,77.07 117.46,85.04 121.54,93.83 127.28,105.21 130.14,117.83 129.88,130.58 L 129.88,130.58 Z M 129.88,130.58" />
    <path id="canvas1-bezier13" stroke="none" fill="rgb(51, 51, 51)" d="M48.1 116.98a8 8 0 1 0 16 0a8 8 0 1 0 -16 0z" />
</svg>