<?xml version="1.0" standalone="no"?><!DOCTYPE svg PUBLIC "-//W3C//DTD SVG 1.1//EN" "http://www.w3.org/Graphics/SVG/1.1/DTD/svg11.dtd"><svg t="1623579928365" class="icon" viewBox="0 0 1024 1024" version="1.1" xmlns="http://www.w3.org/2000/svg" p-id="27581" xmlns:xlink="http://www.w3.org/1999/xlink" width="200" height="200"><defs><style type="text/css"></style></defs><path d="M320 695.8c-38.3 0-60.3-11.9-70.8-17.6-0.9-0.5-1.8-1-2.5-1.3-11.4-5.9-24.8-20.5-35.9-39.1-4.2-7.1-17.7-31.3-14.2-45.8 1.7-6.8 6.8-10.7 14.1-10.7 9.4 0 22.9 6.3 41.4 19.3 19.8 13.9 39 20.9 57.3 20.9 19.1 0 37-7.5 53.1-22.3 12.3-11.3 18.9-22.8 19-22.9 0.8-1.4 2.2-2.3 3.8-2.5 0.5-0.1 47.4-6.1 88.8-6.1 42.6 0 64.1 6.1 67.7 19.3 3.6 13.6-12.4 29.9-52.1 52.8-64.6 37.1-121.7 56-169.7 56z" fill="#E22C1A" p-id="27582"></path><path d="M473.9 572.7c55.8 0 102.2 11 13 62.5-75 43.3-129.2 55.5-167 55.5-40.6 0-62.4-14-70.9-18.4-27.9-14.5-65.9-86-38.4-86 7.5 0 19.8 5.3 38.4 18.4 22.7 16 42.9 21.9 60.2 21.9 49.5 0 76.5-47.8 76.5-47.8s46.8-6.1 88.2-6.1m0-10.2c-41.7 0-87.5 5.9-89.4 6.2-3.2 0.4-6 2.3-7.6 5.1-0.1 0.1-6.4 11.1-18.2 21.8-15.1 13.8-31.8 20.8-49.4 20.8-17.2 0-35.5-6.7-54.4-20-19.6-13.8-33.7-20.2-44.3-20.2-9.7 0-16.8 5.5-19 14.6-3.9 16 9 40.1 14.8 49.7 11.6 19.3 25.8 34.7 38 41 0.7 0.3 1.5 0.8 2.4 1.3 10 5.5 33.6 18.2 73.2 18.2 49 0 106.9-19.1 172.1-56.8 19.7-11.4 33.7-21.2 42.6-30 4.7-4.7 8-9 10-13.3 2.5-5.2 3.1-10.4 1.8-15.2-1.5-5.7-5.4-10.3-11.6-13.8-4.4-2.5-10-4.4-17-5.9-11-2.4-25.8-3.5-44-3.5z" fill="#6D4120" p-id="27583"></path><path d="M249.1 617c87.3 61.4 136.8-25.9 136.8-25.9s134.1-17.4 149.7 6.8c18.8-39.5-149.7-17.6-149.7-17.6s-49.4 87.3-136.8 25.9c-40-28.1-50.8-20.1-47.3-1.4 2.8-9.7 16.3-9.6 47.3 12.2z" fill="#FFFFFF" p-id="27584"></path><path d="M285.5 763.1c-26.1 0-40.2-4.8-42-14.2-1.6-8.1 6.7-14.8 13.1-19.1 9.3-6.3 24.2-13.6 44.1-21.6 31.3-12.5 74.5-34.9 103-71 17-21.5 20.7-37.8 20.7-38 0.3-1.3 1.1-2.5 2.2-3.2 1.8-1.2 43.4-28.2 70.7-28.2 9.4 0 16.4 3.1 20.7 9.3 7.2 10.2 6.2 27.7-3.1 53.6-35.4 99.3-126.4 116.5-175.3 125.7-4.9 0.9-9.5 1.8-13.5 2.6-12 2.7-26.8 4.1-40.6 4.1z" fill="#E22C1A" p-id="27585"></path><path d="M497.2 573.1c17.8 0 28.2 12.8 12.8 56-37.9 106.3-141 115.7-185 125.1-11.5 2.4-26.2 3.9-39.6 3.9-38.2 0-66.2-11.7 17.1-44.9 112.5-45 126.8-112.7 126.8-112.7s41.9-27.4 67.9-27.4m0-10.2c-12.4 0-28.6 5-48.3 14.8-14.1 7-24.8 14-25.2 14.3-2.3 1.5-3.9 3.7-4.4 6.4-0.2 0.8-4.1 16.3-20.2 36.5-9.7 12.2-22 23.7-36.3 34.2-18.1 13.2-39.6 24.9-64.1 34.6-20.3 8.1-35.5 15.5-45.1 22.1-4.3 3-17.6 12-15.2 24.3 1.5 7.6 8 12.9 19.5 15.7 9 2.2 20 2.6 27.6 2.6 14.2 0 29.4-1.5 41.7-4.1 3.9-0.8 8.5-1.7 13.4-2.6 25.4-4.8 60.2-11.4 94.1-29.5 18.8-10.1 35.1-22.7 48.6-37.5 15.7-17.3 28-38.2 36.5-62 4.8-13.6 7.5-24.8 8-34.2 0.6-9.9-1.3-18-5.6-24-3.8-5.4-11.1-11.6-25-11.6z" fill="#6D4120" p-id="27586"></path><path d="M307.6 721.4c112.5-44.9 126.8-112.6 126.8-112.6s54.8-35.9 78-25.5c-15.4-26.6-85.2 19.1-85.2 19.1S412.9 670.1 300.4 715c-57.1 22.8-61.9 35.5-46.9 41.2-1-7.1 12.9-18.3 54.1-34.8z" fill="#FFFFFF" p-id="27587"></path><path d="M709.8 768.8c-12.6 0-25.1-1.4-35.1-4-4.5-1.1-9.5-2.3-14.9-3.6-25.1-5.8-59.6-13.8-92-32.5-17.8-10.3-33.4-22.9-46.2-37.6-14.9-17-26.6-37.3-34.8-60.3-9.2-25.9-10.2-43.4-3.1-53.6 4.3-6.2 11.3-9.3 20.7-9.3 27.3 0 68.9 27.1 70.7 28.2 1.1 0.7 1.9 1.9 2.2 3.2 0 0.1 3.7 16.5 20.7 38 15.7 19.9 46.4 48.3 103 71 20 8 34.9 15.5 44.3 22.4 9.8 7.2 13.9 13.9 12.6 20.6-3.1 15.8-34.7 17.5-48.1 17.5z" fill="#E22C1A" p-id="27588"></path><path d="M504.4 573.1c26 0 67.9 27.4 67.9 27.4s14.3 67.7 126.8 112.6c87.3 34.9 51.6 50.6 10.7 50.6-11.8 0-24-1.3-33.8-3.8-45.9-11.8-146.4-24.5-184.4-130.8-15.4-43.2-5-56 12.8-56m0-10.2v10.2-10.2c-13.9 0-21.2 6.2-24.9 11.4-4.2 6-6.1 14.1-5.6 24 0.5 9.4 3.1 20.6 8 34.2 8.4 23.6 20.5 44.5 35.8 62 13.2 15.1 29.1 28 47.5 38.6 33.1 19.1 68 27.2 93.4 33.1 5.3 1.2 10.4 2.4 14.8 3.5 10.4 2.7 23.3 4.1 36.4 4.1 8.5 0 20.9-0.6 31.7-3.7 12.6-3.5 19.8-9.6 21.5-18 0.6-3.3 0.6-8.6-3.4-14.5-2.5-3.7-6.1-7.3-11.2-11.1-9.7-7.1-24.9-14.8-45.4-23-24.4-9.8-46-21.4-64.1-34.6-14.4-10.5-26.6-22-36.3-34.2-16.1-20.2-20-35.7-20.2-36.5-0.5-2.7-2.1-4.9-4.4-6.4-0.4-0.3-11.1-7.3-25.2-14.3-19.8-9.7-36-14.6-48.4-14.6z" fill="#6D4120" p-id="27589"></path><path d="M424.7 790.6c-2.3 0-4.5-0.3-6.6-0.9-2.5-0.7-5.8-2.5-7.9-7.1-3.4-7.6-2.1-21 4-41.9 4.5-15.6 11.7-35.1 21.3-58.2 16.4-39.1 34.4-75.4 34.6-75.7 0.4-0.8 1-1.5 1.7-1.9 0.4-0.3 10.9-7.4 24.4-14.6 18.5-9.9 33.2-14.9 43.7-14.9 11.3 0 18.4 6.1 19.7 16.8 1.8 15.7-9.2 44.2-32.9 84.7-16.7 28.6-34 53.5-35.4 55.5-1 1.6-9.4 15-21.1 28.5-17.1 19.6-32.4 29.7-45.5 29.7z" fill="#E22C1A" p-id="27590"></path><path d="M539.9 580.4c7.9 0 13.5 3.3 14.6 12.2 4.1 35.1-67.5 136.8-67.5 136.8s-34.4 56-62.3 56c-1.8 0-3.5-0.2-5.2-0.7-28.6-8.1 55.2-175.8 55.2-175.8s42.1-28.5 65.2-28.5m0-10.2c-11.3 0-26.8 5.2-46.1 15.5-13.7 7.3-24.4 14.6-24.9 14.9-1.4 1-2.6 2.3-3.4 3.9-0.2 0.4-18.3 36.8-34.8 76.1-30.7 73.5-29.6 94.3-25.2 104.2 2.2 5 6.2 8.5 11.1 9.9 2.6 0.7 5.3 1.1 8 1.1 8.6 0 17.9-3.6 27.6-10.7 6.9-5.1 14.3-12.1 21.8-20.8 11.7-13.5 20.1-26.9 21.5-29.1 2-2.9 18.9-27.1 35.6-55.7 24.6-42.1 35.5-70.9 33.5-87.9-1.5-13.5-10.8-21.4-24.7-21.4z" fill="#6D4120" p-id="27591"></path><path d="M478.1 621.8s51.5-29.3 73.5-26.1c-8.1-28.9-79.2 19.4-79.2 19.4s-83.9 167.7-55.2 175.8c1.6 0.5 3.2 0.7 4.9 0.7-17.3-31.2 56-169.8 56-169.8z" fill="#FFFFFF" p-id="27592"></path><path d="M545.6 816.9c-14.1 0-21.5-20.8-31.7-49.6l-1.3-3.5c-11.6-32.5-18.8-163.3-19.1-168.9-0.1-1.7 0.6-3.3 1.9-4.3 1.3-1.1 32.8-25.8 58.7-28.1h0.8c4.7 0 8.6 3.4 11.4 10.1 8.7 21.1 10 79.5 8.2 127.1-1 26.3-2.9 51.4-5.5 70.8-4.4 33.6-9.1 38.3-10.8 40-4.1 4.3-8.3 6.4-12.6 6.4z" fill="#E22C1A" p-id="27593"></path><path d="M555 567.6c24.3 0 15.8 223.2-0.4 239.4-3.3 3.3-6.3 4.8-9 4.8-10.9 0-18.6-23.1-28.1-49.7-11.4-32.2-18.9-167.4-18.9-167.4s31.3-24.8 56-27c0.2-0.1 0.3-0.1 0.4-0.1m0-10.2c-0.4 0-0.8 0-1.3 0.1-27.5 2.4-60.1 28.1-61.4 29.2-2.6 2.1-4 5.3-3.9 8.6 0 0.3 1.9 34.4 5.2 72 4.4 51.1 9.2 84.2 14.3 98.3l1.3 3.5c4.5 12.7 8.8 24.7 13.4 33.7 2.8 5.4 5.5 9.5 8.4 12.5 4.4 4.5 9.3 6.8 14.7 6.8 5.7 0 11.1-2.6 16.3-7.8 3.8-3.8 8.2-11.9 12.3-43 2.6-19.5 4.5-44.8 5.5-71.3 1-27.1 0.9-54-0.2-75.6-1.4-25.6-4.2-43.6-8.3-53.6-4.8-11.1-11.5-13.4-16.3-13.4z" fill="#6D4120" p-id="27594"></path><path d="M528.6 761.1c-11.4-32.2-18.9-167.4-18.9-167.4s24.6-19.5 47.4-25.5c-0.8-0.5-1.6-0.7-2.5-0.6-24.7 2.2-56 27-56 27S506 729.9 517.5 762c11.2 31.5 19.9 58 34.5 47.2-8.6-5.4-15.4-25.5-23.4-48.1z" fill="#FFFFFF" p-id="27595"></path><path d="M689.5 718.7c-21.3 0-41.1-6.3-58.7-18.6-14-9.8-26.6-23.3-37.5-40.3-17-26.3-24.5-52.3-25.8-57.3-1.9-3-9.4-15.2-16.4-28.2-9-16.7-16.7-33.2-12.6-40.7 1.4-2.6 4.1-4.1 7.3-4.1 3.5 0 9.4 1.5 24.3 13.4 11.7 9.3 27.6 24 47.2 43.7 32.7 32.7 64.1 50 90.7 50 25.7 0 41.9-15.9 48.5-30.8 6.6-14.9 1.4-25.7-12-46.6-26.3-40.9-24.5-54.5-20.9-61.1 2-3.6 6.3-7.8 15.9-7.8 9.5 0 23.2 4.2 40.6 12.4 17.6 8.4 32.1 22.5 40.7 39.7 10.4 20.8 20.4 52.4 9.4 85.1-10 29.6-35.2 54.5-74.9 74.1-23.3 11.4-45.4 17.1-65.8 17.1z" fill="#E22C1A" p-id="27596"></path><path d="M739.5 495.4c10.6 0 25.8 6 38.4 11.9 16.6 7.9 30.1 21 38.3 37.4 18.3 36.6 33.9 104.4-63.3 152.3-23.9 11.8-44.9 16.7-63.4 16.7-88.8 0-117.3-113.1-117.3-113.1s-41.7-65.9-26.4-65.9c7.1 0 26.4 14.2 67.9 55.6 38.3 38.3 70 51.5 94.3 51.5 27.6 0 45.8-17.1 53.2-33.9 7.9-17.9 0.7-31-12.4-51.4-30.5-47.6-25.2-61.1-9.3-61.1m0-10.3v10.2-10.2c-12.7 0-18.2 6.6-20.3 10.5-3.7 6.7-3.5 15.6 0.5 27.1 3.6 10.4 10.3 23.3 20.6 39.2 12.9 20.2 17.3 29 11.7 41.8-5.9 13.4-20.6 27.8-43.8 27.8-25.2 0-55.3-16.8-87.1-48.5-19.8-19.8-35.8-34.6-47.7-44.1-12.9-10.3-20.8-14.5-27.4-14.5-5 0-9.4 2.5-11.8 6.8-2.9 5.3-2.4 12.1 1.7 22.8 2.4 6.1 6 13.8 10.8 22.9 6.7 12.5 13.8 24 16.2 27.8 1.9 6.7 9.6 32.2 26.2 58 11.3 17.5 24.4 31.6 38.9 41.7 18.5 13 39.2 19.5 61.6 19.5 21.2 0 44-6 67.9-17.7 41-20.2 67.1-46.1 77.5-77 11.6-34.4 1.2-67.4-9.6-89-9.1-18.3-24.4-33.2-43.1-42.1-18.2-8.6-32.6-13-42.8-13z" fill="#6D4120" p-id="27597"></path><path d="M815.7 543.6c-0.2-0.4-0.4-0.7-0.6-1.1 15.4 38 20.3 98.1-68.1 141.6-95.2 46.9-144.7-15.6-166.5-59.7 18.3 43.3 67.8 122.6 171.8 71.4 97.3-47.7 81.7-115.6 63.4-152.2z" fill="#FFFFFF" p-id="27598"></path><path d="M729.9 521.4c3.4 8.7 9.3 19.8 18.4 34 3.1 4.9 5.9 9.4 8.3 13.6-2.6-7.7-7.5-15.7-13.7-25.3-5.4-8.5-9.7-15.9-13-22.3z" fill="#FFFFFF" p-id="27599"></path><path d="M504.7 626.9c-55.8 0-108.3-21.7-147.8-61.2-39.5-39.5-61.2-92-61.2-147.8s21.7-108.3 61.2-147.8 92-61.2 147.8-61.2 108.3 21.7 147.8 61.2c39.5 39.5 61.2 92 61.2 147.8S692 526.2 652.5 565.7c-39.5 39.5-92 61.2-147.8 61.2z" fill="#F95E08" p-id="27600"></path><path d="M504.7 214c112.6 0 203.9 91.3 203.9 203.9s-91.3 203.9-203.9 203.9c-112.6 0-203.9-91.3-203.9-203.9S392.1 214 504.7 214m0-10.2c-28.9 0-56.9 5.7-83.3 16.8-25.5 10.8-48.4 26.2-68.1 45.9-19.7 19.7-35.1 42.6-45.9 68.1-11.2 26.4-16.8 54.4-16.8 83.3s5.7 56.9 16.8 83.3c10.8 25.5 26.2 48.4 45.9 68.1 19.7 19.7 42.6 35.1 68.1 45.9 26.4 11.2 54.4 16.8 83.3 16.8s56.9-5.7 83.3-16.8c25.5-10.8 48.4-26.2 68.1-45.9 19.7-19.7 35.1-42.6 45.9-68.1 11.2-26.4 16.8-54.4 16.8-83.3s-5.7-56.9-16.8-83.3c-10.8-25.5-26.2-48.4-45.9-68.1-19.7-19.7-42.6-35.1-68.1-45.9-26.4-11.1-54.4-16.8-83.3-16.8z" fill="#6D4120" p-id="27601"></path><path d="M695.5 491c-6.9 0.6-15.5 3-26.1 7.9-64.5 29.5-77.6-5-91.9-14.1-14.2-9.2-33.8-33.8-77.4 0-43.6 33.8-82 19.5-126.4-7.5-21.5-13.1-45.7-7.4-64.9 1.9 25.2 84.1 103.1 145.3 195.3 145.3 87.8 0 162.7-55.6 191.4-133.5z" fill="#F94406" p-id="27602"></path><path d="M549.2 604.2c-112.6 0-203.9-91.3-203.9-203.9 0-79.3 45.3-148 111.3-181.7-89.6 21.5-156.2 102.1-156.2 198.3 0 112.6 91.3 203.9 203.9 203.9 33.3 0 64.8-8 92.5-22.2-15.2 3.7-31.2 5.6-47.6 5.6z" fill="#F94E03" p-id="27603"></path><path d="M567.1 299.2c-19.4 0-35.2-15.8-35.2-35.2s15.8-35.2 35.2-35.2 35.2 15.8 35.2 35.2-15.8 35.2-35.2 35.2z" fill="#FCFCFC" p-id="27604"></path><path d="M567.1 233.9c16.6 0 30.1 13.5 30.1 30.1s-13.5 30.1-30.1 30.1S537 280.6 537 264s13.5-30.1 30.1-30.1m0-10.2c-22.2 0-40.3 18.1-40.3 40.3s18.1 40.3 40.3 40.3c22.2 0 40.3-18.1 40.3-40.3s-18.1-40.3-40.3-40.3z" fill="#6D4120" p-id="27605"></path><path d="M637.1 308.3c-19.4 0-35.2-15.8-35.2-35.2s15.8-35.2 35.2-35.2 35.2 15.8 35.2 35.2-15.8 35.2-35.2 35.2z" fill="#FCFCFC" p-id="27606"></path><path d="M637.1 243c16.6 0 30.1 13.5 30.1 30.1s-13.5 30.1-30.1 30.1-30.1-13.5-30.1-30.1 13.4-30.1 30.1-30.1m0-10.2c-22.2 0-40.3 18.1-40.3 40.3 0 22.2 18.1 40.3 40.3 40.3 22.2 0 40.3-18.1 40.3-40.3 0-22.3-18.1-40.3-40.3-40.3z" fill="#6D4120" p-id="27607"></path><path d="M514.8 249.2c-19.4 0-35.2-15.8-35.2-35.2s15.8-35.2 35.2-35.2S550 194.6 550 214s-15.8 35.2-35.2 35.2z" fill="#FCFCFC" p-id="27608"></path><path d="M514.8 184c16.6 0 30.1 13.5 30.1 30.1s-13.5 30.1-30.1 30.1-30.1-13.5-30.1-30.1c0-16.7 13.5-30.1 30.1-30.1m0-10.3c-22.2 0-40.3 18.1-40.3 40.3s18.1 40.3 40.3 40.3c22.2 0 40.3-18.1 40.3-40.3s-18.1-40.3-40.3-40.3z" fill="#6D4120" p-id="27609"></path><path d="M441.2 273.3c-19.4 0-35.2-15.8-35.2-35.2s15.8-35.2 35.2-35.2 35.2 15.8 35.2 35.2-15.8 35.2-35.2 35.2z" fill="#FCFCFC" p-id="27610"></path><path d="M441.2 208c16.6 0 30.1 13.5 30.1 30.1s-13.5 30.1-30.1 30.1-30.1-13.5-30.1-30.1 13.5-30.1 30.1-30.1m0-10.2c-22.2 0-40.3 18.1-40.3 40.3s18.1 40.3 40.3 40.3 40.3-18.1 40.3-40.3-18.1-40.3-40.3-40.3z" fill="#6D4120" p-id="27611"></path><path d="M371.2 308.3c-19.4 0-35.2-15.8-35.2-35.2s15.8-35.2 35.2-35.2 35.2 15.8 35.2 35.2-15.8 35.2-35.2 35.2z" fill="#FCFCFC" p-id="27612"></path><path d="M371.2 243c16.6 0 30.1 13.5 30.1 30.1s-13.5 30.1-30.1 30.1-30.1-13.5-30.1-30.1 13.5-30.1 30.1-30.1m0-10.2c-22.2 0-40.3 18.1-40.3 40.3 0 22.2 18.1 40.3 40.3 40.3 22.2 0 40.3-18.1 40.3-40.3 0-22.3-18.1-40.3-40.3-40.3z" fill="#6D4120" p-id="27613"></path><path d="M318 370.6c-19.4 0-35.2-15.8-35.2-35.2s15.8-35.2 35.2-35.2 35.2 15.8 35.2 35.2-15.8 35.2-35.2 35.2z" fill="#FCFCFC" p-id="27614"></path><path d="M318 305.3c16.6 0 30.1 13.5 30.1 30.1s-13.5 30.1-30.1 30.1-30.1-13.5-30.1-30.1 13.5-30.1 30.1-30.1m0-10.2c-22.2 0-40.3 18.1-40.3 40.3s18.1 40.3 40.3 40.3c22.2 0 40.3-18.1 40.3-40.3s-18.1-40.3-40.3-40.3z" fill="#6D4120" p-id="27615"></path><path d="M367.9 353.1c-11.1 0-20.2-9-20.2-20.2 0-11.1 9-20.2 20.2-20.2s20.2 9 20.2 20.2-9.1 20.2-20.2 20.2z" fill="#FCFCFC" p-id="27616"></path><path d="M367.9 317.9c8.3 0 15 6.7 15 15s-6.7 15-15 15-15-6.7-15-15 6.7-15 15-15m0-10.2c-13.9 0-25.3 11.3-25.3 25.3s11.3 25.3 25.3 25.3 25.3-11.3 25.3-25.3-11.4-25.3-25.3-25.3z" fill="#6D4120" p-id="27617"></path><path d="M215.8 641.6c-19.2 0-34.9-15.6-34.9-34.9 0-19.2 15.6-34.9 34.9-34.9s34.9 15.6 34.9 34.9c0 19.2-15.6 34.9-34.9 34.9z" fill="#FC322D" p-id="27618"></path><path d="M215.8 576.9c16.4 0 29.8 13.3 29.8 29.8s-13.3 29.8-29.8 29.8-29.8-13.3-29.8-29.8 13.4-29.8 29.8-29.8m0-10.2c-22 0-40 17.9-40 40 0 22 17.9 40 40 40s40-17.9 40-40-17.9-40-40-40z" fill="#6D4120" p-id="27619"></path><path d="M258.2 783.7c-19.2 0-34.9-15.6-34.9-34.9 0-19.2 15.6-34.9 34.9-34.9s34.9 15.6 34.9 34.9c-0.1 19.3-15.7 34.9-34.9 34.9z" fill="#FC322D" p-id="27620"></path><path d="M258.2 719.1c16.4 0 29.8 13.3 29.8 29.8 0 16.4-13.3 29.8-29.8 29.8s-29.8-13.3-29.8-29.8 13.3-29.8 29.8-29.8m0-10.2c-22 0-40 17.9-40 40 0 22 17.9 40 40 40s40-17.9 40-40c-0.1-22.1-18-40-40-40z" fill="#6D4120" p-id="27621"></path><path d="M423.7 816.1c-19.2 0-34.9-15.6-34.9-34.9 0-19.2 15.6-34.9 34.9-34.9s34.9 15.6 34.9 34.9c-0.1 19.3-15.7 34.9-34.9 34.9z" fill="#FC322D" p-id="27622"></path><path d="M423.7 751.5c16.4 0 29.8 13.3 29.8 29.8S440.1 811 423.7 811s-29.8-13.3-29.8-29.8 13.3-29.7 29.8-29.7m0-10.2c-22 0-40 17.9-40 40 0 22 17.9 40 40 40s40-17.9 40-40-18-40-40-40z" fill="#6D4120" p-id="27623"></path><path d="M554.6 837.6c-19.2 0-34.9-15.6-34.9-34.9 0-19.2 15.6-34.9 34.9-34.9s34.9 15.6 34.9 34.9c0 19.3-15.6 34.9-34.9 34.9z" fill="#FC322D" p-id="27624"></path><path d="M554.6 773c16.4 0 29.8 13.3 29.8 29.8 0 16.4-13.3 29.8-29.8 29.8-16.4 0-29.8-13.3-29.8-29.8 0.1-16.5 13.4-29.8 29.8-29.8m0-10.2c-22 0-40 17.9-40 40 0 22 17.9 40 40 40 22 0 40-17.9 40-40s-17.9-40-40-40z" fill="#6D4120" p-id="27625"></path><path d="M733.6 786.4c-19.2 0-34.9-15.6-34.9-34.9 0-19.2 15.6-34.9 34.9-34.9 19.2 0 34.9 15.6 34.9 34.9 0 19.2-15.7 34.9-34.9 34.9z" fill="#FC322D" p-id="27626"></path><path d="M733.6 721.7c16.4 0 29.8 13.3 29.8 29.8 0 16.4-13.3 29.8-29.8 29.8-16.4 0-29.8-13.3-29.8-29.8 0-16.4 13.4-29.8 29.8-29.8m0-10.2c-22 0-40 17.9-40 40 0 22 17.9 40 40 40 22 0 40-17.9 40-40s-18-40-40-40z" fill="#6D4120" p-id="27627"></path><path d="M732.5 721.7c-1.7 0-3.4 0.2-5 0.4 10.6 4.5 18.1 15.1 18.1 27.4 0 14.7-10.7 26.9-24.7 29.3 3.6 1.5 7.5 2.4 11.7 2.4 16.4 0 29.8-13.3 29.8-29.8-0.1-16.3-13.4-29.7-29.9-29.7zM554.8 773.4c-1.7 0-3.4 0.2-5 0.4 10.6 4.5 18.1 15.1 18.1 27.4 0 14.7-10.7 26.9-24.7 29.3 3.6 1.5 7.5 2.4 11.7 2.4 16.4 0 29.8-13.3 29.8-29.8-0.1-16.4-13.4-29.7-29.9-29.7zM424.4 751.8c-1.7 0-3.4 0.2-5 0.4 10.6 4.5 18.1 15.1 18.1 27.4 0 14.7-10.7 26.9-24.7 29.3 3.6 1.5 7.5 2.4 11.7 2.4 16.4 0 29.8-13.3 29.8-29.8s-13.4-29.7-29.9-29.7zM258 719.1c-1.7 0-3.4 0.2-5 0.4 10.6 4.5 18.1 15.1 18.1 27.4 0 14.7-10.7 26.9-24.7 29.3 3.6 1.5 7.5 2.4 11.7 2.4 16.4 0 29.8-13.3 29.8-29.8-0.2-16.4-13.5-29.7-29.9-29.7zM215.8 577c-1.7 0-3.4 0.2-5 0.4 10.6 4.5 18.1 15.1 18.1 27.4 0 14.7-10.7 26.9-24.7 29.3 3.6 1.5 7.5 2.4 11.7 2.4 16.4 0 29.8-13.3 29.8-29.8S232.3 577 215.8 577z" fill="#F94E03" p-id="27628"></path><path d="M749.9 544.1c-21.4 0-38.7-17.4-38.7-38.7s17.4-38.7 38.7-38.7 38.7 17.4 38.7 38.7-17.3 38.7-38.7 38.7z" fill="#FC322D" p-id="27629"></path><path d="M749.9 471.8c18.6 0 33.6 15 33.6 33.6s-15 33.6-33.6 33.6-33.6-15-33.6-33.6 15-33.6 33.6-33.6m0-10.2c-24.2 0-43.8 19.7-43.8 43.8s19.7 43.8 43.8 43.8 43.8-19.7 43.8-43.8-19.6-43.8-43.8-43.8z" fill="#6D4120" p-id="27630"></path><path d="M750.1 471.8c-3.9 0-7.6 0.7-11.1 1.9 13.1 4.6 22.5 17.1 22.5 31.7s-9.4 27.1-22.5 31.7c3.5 1.2 7.2 1.9 11.1 1.9 18.6 0 33.6-15 33.6-33.6s-15.1-33.6-33.6-33.6z" fill="#F94E03" p-id="27631"></path><path d="M433.5 319.1c-13.8 0-25.1-11.2-25.1-25.1 0-13.8 11.2-25.1 25.1-25.1s25.1 11.2 25.1 25.1c-0.1 13.9-11.3 25.1-25.1 25.1z" fill="#FCFCFC" p-id="27632"></path><path d="M433.5 274.1c11 0 20 8.9 20 20 0 11-8.9 20-20 20-11 0-20-8.9-20-20s9-20 20-20m0-10.2c-16.6 0-30.2 13.5-30.2 30.2s13.5 30.2 30.2 30.2c16.6 0 30.2-13.5 30.2-30.2s-13.6-30.2-30.2-30.2z" fill="#6D4120" p-id="27633"></path><path d="M653.9 442.1c-25.4 0-46.1-19.3-46.1-43s20.7-43 46.1-43 46.1 19.3 46.1 43-20.7 43-46.1 43z" fill="#59250E" p-id="27634"></path><path d="M653.9 361.2c22.6 0 41 17 41 37.9s-18.3 37.9-41 37.9c-22.6 0-41-17-41-37.9s18.4-37.9 41-37.9m0-10.3c-28.2 0-51.2 21.6-51.2 48.1s23 48.1 51.2 48.1c28.2 0 51.2-21.6 51.2-48.1s-23-48.1-51.2-48.1z" fill="#6D4120" p-id="27635"></path><path d="M654.5 361.3c-3.8 0-7.5 0.5-11.1 1.4 15.9 5.2 27.3 19.2 27.3 35.8 0 17.4-12.7 32-29.9 36.5 4.3 1.4 8.9 2.2 13.7 2.2 22.6 0 41-17 41-37.9s-18.4-38-41-38z" fill="#FCFAFA" p-id="27636"></path><path d="M781.6 543m-9.1 0a9.1 9.1 0 1 0 18.2 0 9.1 9.1 0 1 0-18.2 0Z" fill="#F9B9B9" p-id="27637"></path><path d="M542.5 754.2m-9.1 0a9.1 9.1 0 1 0 18.2 0 9.1 9.1 0 1 0-18.2 0Z" fill="#F9B9B9" p-id="27638"></path><path d="M450.7 737.2m-9.1 0a9.1 9.1 0 1 0 18.2 0 9.1 9.1 0 1 0-18.2 0Z" fill="#F9B9B9" p-id="27639"></path><path d="M459.8 719.1m-9.1 0a9.1 9.1 0 1 0 18.2 0 9.1 9.1 0 1 0-18.2 0Z" fill="#F9B9B9" p-id="27640"></path><path d="M469 700.8m-9.1 0a9.1 9.1 0 1 0 18.2 0 9.1 9.1 0 1 0-18.2 0Z" fill="#F9B9B9" p-id="27641"></path><path d="M478.1 684.2m-9.1 0a9.1 9.1 0 1 0 18.2 0 9.1 9.1 0 1 0-18.2 0Z" fill="#F9B9B9" p-id="27642"></path><path d="M308 733.5m-9.1 0a9.1 9.1 0 1 0 18.2 0 9.1 9.1 0 1 0-18.2 0Z" fill="#F9B9B9" p-id="27643"></path><path d="M326.2 728.2m-9.1 0a9.1 9.1 0 1 0 18.2 0 9.1 9.1 0 1 0-18.2 0Z" fill="#F9B9B9" p-id="27644"></path><path d="M344.5 721.7m-9.1 0a9.1 9.1 0 1 0 18.2 0 9.1 9.1 0 1 0-18.2 0Z" fill="#F9B9B9" p-id="27645"></path><path d="M362.8 713.9m-9.1 0a9.1 9.1 0 1 0 18.2 0 9.1 9.1 0 1 0-18.2 0Z" fill="#F9B9B9" p-id="27646"></path><path d="M254.7 640.8m-9.1 0a9.1 9.1 0 1 0 18.2 0 9.1 9.1 0 1 0-18.2 0Z" fill="#F9B9B9" p-id="27647"></path><path d="M271.6 650m-9.1 0a9.1 9.1 0 1 0 18.2 0 9.1 9.1 0 1 0-18.2 0Z" fill="#F9B9B9" p-id="27648"></path><path d="M289.8 654.6m-9.1 0a9.1 9.1 0 1 0 18.2 0 9.1 9.1 0 1 0-18.2 0Z" fill="#F9B9B9" p-id="27649"></path><path d="M309.9 656.4m-9.1 0a9.1 9.1 0 1 0 18.2 0 9.1 9.1 0 1 0-18.2 0Z" fill="#F9B9B9" p-id="27650"></path><path d="M537 733.5m-9.1 0a9.1 9.1 0 1 0 18.2 0 9.1 9.1 0 1 0-18.2 0Z" fill="#F9B9B9" p-id="27651"></path><path d="M537 713.9m-9.1 0a9.1 9.1 0 1 0 18.2 0 9.1 9.1 0 1 0-18.2 0Z" fill="#F9B9B9" p-id="27652"></path><path d="M537 693.4m-9.1 0a9.1 9.1 0 1 0 18.2 0 9.1 9.1 0 1 0-18.2 0Z" fill="#F9B9B9" p-id="27653"></path><path d="M686.1 733.5m-9.1 0a9.1 9.1 0 1 0 18.2 0 9.1 9.1 0 1 0-18.2 0Z" fill="#F9B9B9" p-id="27654"></path><path d="M667.1 728m-9.1 0a9.1 9.1 0 1 0 18.2 0 9.1 9.1 0 1 0-18.2 0Z" fill="#F9B9B9" p-id="27655"></path><path d="M648.9 723m-9.1 0a9.1 9.1 0 1 0 18.2 0 9.1 9.1 0 1 0-18.2 0Z" fill="#F9B9B9" p-id="27656"></path><path d="M629.2 717.9m-9.1 0a9.1 9.1 0 1 0 18.2 0 9.1 9.1 0 1 0-18.2 0Z" fill="#F9B9B9" p-id="27657"></path><path d="M612.9 708.8m-9.1 0a9.1 9.1 0 1 0 18.2 0 9.1 9.1 0 1 0-18.2 0Z" fill="#F9B9B9" p-id="27658"></path><path d="M790 561.4m-9.1 0a9.1 9.1 0 1 0 18.2 0 9.1 9.1 0 1 0-18.2 0Z" fill="#F9B9B9" p-id="27659"></path><path d="M795.2 581.2m-9.1 0a9.1 9.1 0 1 0 18.2 0 9.1 9.1 0 1 0-18.2 0Z" fill="#F9B9B9" p-id="27660"></path><path d="M795.2 601.1m-9.1 0a9.1 9.1 0 1 0 18.2 0 9.1 9.1 0 1 0-18.2 0Z" fill="#F9B9B9" p-id="27661"></path><path d="M786.4 618.5m-9.1 0a9.1 9.1 0 1 0 18.2 0 9.1 9.1 0 1 0-18.2 0Z" fill="#F9B9B9" p-id="27662"></path><path d="M772.5 636.4m-9.1 0a9.1 9.1 0 1 0 18.2 0 9.1 9.1 0 1 0-18.2 0Z" fill="#F9B9B9" p-id="27663"></path><path d="M753 652.9m-9.1 0a9.1 9.1 0 1 0 18.2 0 9.1 9.1 0 1 0-18.2 0Z" fill="#F9B9B9" p-id="27664"></path><path d="M646.6 393.5m-6.3 0a6.3 6.3 0 1 0 12.6 0 6.3 6.3 0 1 0-12.6 0Z" fill="#FCFAFA" p-id="27665"></path></svg>