<svg t="1623565861568" class="icon" viewBox="0 0 1024 1024" version="1.1" xmlns="http://www.w3.org/2000/svg" p-id="4815" width="200" height="200">
    <path id="canvas1-bezier" stroke="none" fill="#FFFFFF" d="M 723.24,213.22 C 793.04,169.13 777.64,80.5 693.05,78.38 608.45,76.27 557.81,145.27 489.66,38.18 462.05,-17.42 362.88,-19.65 297.32,86.14" />
        <path id="canvas1-bezier2" stroke="none" fill="#FFFFFF" d="M 221.3,503.1 C 353.84,740.32 445.13,618.3 464.17,599.26 464.17,599.26 492.13,618.18 522.68,632.99 779.76,736.09 716.19,481.82 716.19,481.82" />
        <path id="canvas1-bezier3" stroke="none" fill="#FFFFFF" d="M 485.9,569.99 C 558.16,569.99 621.73,550.94 675.19,513.33 679.18,510.98 684.94,506.27 692.93,499.93 724.18,475 789.28,423.16 852.61,423.16 871.41,423.16 889.03,427.87 904.78,437.04 907.24,438.8 910.42,439.62 914.17,439.62 934.15,439.62 979.03,415.41 1001.12,378.96 1018.98,349.46 1019.57,316.9 1002.88,284.92 985.14,250.95 976.92,231.08 975.51,218.27 974.33,207.57 977.62,202.52 984.32,192.29 988.2,186.41 993.01,179.01 997.6,169.02 997.95,168.19 998.18,167.25 998.3,166.31 998.77,161.73 997.36,157.5 994.31,154.09 988.78,147.97 978.21,144.92 962.7,144.92 936.38,144.92 896.43,154.44 874.46,172.19 873.64,172.9 872.82,173.6 871.88,174.31 854.84,188.18 823,214.04 761.55,214.04 701.39,214.04 626.66,189.47 539.36,141.04 539.25,141.04 539.25,140.92 539.13,140.92 537.95,140.33 536.66,139.63 535.25,138.92 507.05,124.23 431.97,85.2 328.34,85.2 222.24,85.2 116.73,125.4 14.51,204.75 12.39,206.4 11.22,208.87 11.22,211.45 11.22,212.28 10.98,214.51 10.75,216.74 9.69,226.73 7.58,247.42 10.87,273.64 14.98,305.85 26.14,336.88 43.88,365.68 95.93,450.08 201.8,513.56 358.77,554.35 359.01,554.35 359.12,554.47 359.36,554.47 363,555.17 367,555.88 371.34,556.82 398.25,562.11 438.9,569.99 485.9,569.99 Z M 485.9,569.99" />
        <path id="canvas1-bezier4" stroke="none" fill="#000000" d="M 328.22,93.78 C 242.57,93.78 136.47,120.82 19.68,211.57 19.68,230.38 -30.96,444.32 361,546.24 386.38,550.94 432.09,561.64 486.02,561.64 543.01,561.64 609.16,549.77 670.72,506.27 688.35,496.05 770.48,414.82 852.84,414.82 872.11,414.82 891.38,419.28 909.71,430.1 910.65,430.92 912.3,431.28 914.41,431.28 940.02,431.28 1039.9,373.67 995.6,288.92 947.66,197.23 970.1,208.98 990.08,165.49 990.9,157.26 979.27,153.38 962.82,153.38 937.2,153.38 899.96,162.67 879.87,178.77 862.59,192.76 829.23,222.5 761.55,222.5 709.38,222.5 636.77,204.75 535.25,148.45 510.11,135.63 434.91,93.78 328.22,93.78 Z M 328.22,76.86 C 433.97,76.86 510.34,116.59 539.13,131.52 540.54,132.22 541.83,132.93 543.01,133.52 543.12,133.63 543.36,133.63 543.48,133.75 629.48,181.48 702.8,205.69 761.55,205.69 820.06,205.69 849.2,181.95 866.59,167.84 867.53,167.14 868.35,166.43 869.17,165.73 892.91,146.56 934.27,136.57 962.7,136.57 980.91,136.57 993.25,140.45 1000.53,148.45 1005.23,153.62 1007.47,160.32 1006.76,167.25 1006.53,169.13 1006.06,171.02 1005.23,172.66 1000.3,183.24 995.36,190.88 991.37,196.99 984.79,207.1 983.03,210.04 983.85,217.33 985.14,228.85 993.37,248.48 1010.4,281.04 1028.62,315.84 1027.91,351.22 1008.41,383.43 984.44,422.93 936.62,448.2 914.29,448.2 908.89,448.2 904.19,446.91 900.31,444.32 885.74,435.86 870.11,431.75 852.61,431.75 792.21,431.75 728.65,482.29 698.22,506.63 689.88,513.33 684.24,517.79 679.77,520.5 625.02,559.05 559.81,578.57 485.9,578.57 437.96,578.57 396.96,570.57 369.7,565.17 365.35,564.34 361.36,563.52 357.83,562.93 357.48,562.82 357.01,562.82 356.66,562.7 270.53,540.36 198.74,510.74 143.17,474.65 96.52,444.44 60.69,409.29 36.6,370.27 -6.64,300.2 0.06,236.84 2.17,216.04 2.41,214.39 2.53,212.28 2.64,211.57 2.64,206.4 5.11,201.46 9.22,198.29 112.97,117.65 220.24,76.86 328.22,76.86 Z M 328.22,76.86" />
        <path id="canvas1-bezier5" stroke="none" fill="#000000" d="M 160.2,265.88 L 160.2,265.88 C 160.2,290.36 140.37,310.2 115.91,310.2 91.44,310.2 71.61,290.36 71.61,265.88 L 71.61,265.88 C 71.61,241.4 91.44,221.56 115.91,221.56 140.37,221.56 160.2,241.4 160.2,265.88 Z M 160.2,265.88" />
        <path id="canvas1-bezier6" stroke="none" fill="#FF9640" d="M 781.76,440.68 C 783.52,440.21 825.82,429.98 848.02,423.4 850.73,422.58 852.84,420.58 853.78,417.99 855.43,413.29 853.31,410.12 848.96,403.89 838.51,388.6 814.07,352.63 837.57,321.48 876.58,269.88 861.77,241.9 848.85,217.21 846.61,212.98 844.5,208.98 842.62,204.75 L 839.68,198.05 782.34,214.51 784.11,222.27 C 784.11,222.39 787.87,239.55 788.92,260.82 790.33,287.98 786.81,309.73 778.7,323.48 755.32,363.21 770.83,431.63 771.54,434.45 L 773.41,442.8 781.76,440.68 Z M 781.76,440.68" />
        <path id="canvas1-bezier7" stroke="none" fill="#000000" d="M 834.98,208.16 L 792.45,220.39 C 792.45,220.39 807.96,290.33 786.1,327.71 764.13,365.09 779.88,432.57 779.88,432.57 779.88,432.57 823.47,421.99 845.67,415.41 849.32,414.35 796.56,361.8 830.87,316.43 872.93,260.47 847.67,236.73 834.98,208.16 Z M 844.38,187.83 L 850.37,201.34 C 852.14,205.22 854.13,209.1 856.37,213.22 863.06,226.03 870.7,240.61 871.05,259.53 871.41,280.22 862.71,302.2 844.26,326.54 826.76,349.69 840.27,376.26 855.9,399.07 860.48,405.77 864.83,412.11 861.65,420.81 859.77,425.99 855.54,429.98 850.37,431.51 828.05,438.09 785.52,448.44 783.75,448.91 L 767.19,452.9 763.31,436.21 C 763.19,435.51 759.08,417.64 757.79,394.95 756.03,362.98 760.61,337.47 771.42,319.01 786.57,293.27 779.76,241.66 775.88,224.03 L 772.48,208.51 787.75,204.05 830.28,191.82 844.38,187.83 Z M 844.38,187.83" />
        <path id="canvas1-bezier8" stroke="none" fill="#FF9640" d="M 649.34,538.84 L 632.3,528.49 C 631.36,527.9 609.27,513.91 603.87,483.94 598.46,453.96 611.51,418.93 642.64,379.67 672.6,341.82 682.59,296.56 671.66,248.95 663.44,213.33 646.64,189 645.93,187.94 L 644.52,186.06 485.55,117.18 499.77,139.98 C 500.47,141.16 571.09,256.12 514.34,317.6 454.41,382.49 521.39,555.65 524.32,563.05 L 527.03,569.99 649.34,538.84 Z M 649.34,538.84" />
        <path id="canvas1-bezier9" stroke="none" fill="#000000" d="M 498.47,135.51 C 498.47,135.51 573.91,256.24 512.1,323.13 455.12,384.96 523.74,559.88 523.74,559.88 L 619.5,535.54 C 619.5,535.54 538.66,486.64 627.49,374.38 696.69,286.8 630.42,192.64 630.42,192.64 L 498.47,135.51 Z M 455.71,98.72 L 505.29,120.12 637.24,177.36 641.58,179.24 644.29,183.12 C 644.99,184.18 662.85,209.81 671.31,247.07 682.83,297.27 672.25,344.87 640.64,384.84 624.31,405.53 613.03,425.16 607.28,443.15 602.69,457.14 601.52,470.3 603.52,482.18 607.98,507.92 626.66,520.38 628.19,521.44 L 658.86,533.9 616.68,552.82 537.01,573.87 508.81,573.87 507.87,565.99 C 507.17,564.11 490.02,520.26 479.79,467.95 465.46,394.13 472.04,341.7 499.53,311.96 511.16,299.38 517.51,283.98 519.04,264.7 520.33,248.48 518.1,229.91 512.22,209.57 502,173.6 484.14,144.68 483.91,144.33 L 455.71,98.72 Z M 455.71,98.72" />
        <path id="canvas1-bezier10" stroke="none" fill="#FF9640" d="M 247.15,502.16 C 269.36,464.31 282.52,419.87 286.39,369.91 289.45,330.3 286.51,287.04 277.94,241.66 263.25,164.43 237.16,108.01 236.11,105.66 L 232.93,98.84 225.77,101.31 C 225.53,101.42 202.39,109.18 157.62,123.99 L 148.69,126.93 152.68,135.28 C 199.8,234.96 203.09,321.48 197.45,376.61 191.46,435.98 174.3,471.95 174.07,472.42 L 170.43,479.94 178.06,483.47 C 179.24,484.06 208.5,497.57 237.52,506.04 L 243.86,507.92 247.15,502.16 Z M 247.15,502.16" />
        <path id="canvas1-bezier11" stroke="none" fill="#000000" d="M 228.35,109.07 C 228.35,109.07 205.44,116.82 160.2,131.75 253.03,327.95 181.59,475.94 181.59,475.94 181.59,475.94 211.08,489.58 239.87,498.04 334.45,336.88 228.35,109.07 228.35,109.07 Z M 237.28,88.49 L 243.63,102.13 C 244.8,104.48 271.12,161.85 286.04,240.02 294.85,286.22 297.79,330.06 294.62,370.5 290.74,421.64 277.11,467.36 254.32,506.27 L 247.74,517.56 235.05,513.8 C 205.44,505.1 175.71,491.34 174.42,490.76 L 159.15,483.7 166.43,468.66 C 166.55,468.3 183.47,432.45 189.11,374.14 192.4,339.94 191.34,304.79 185.94,269.64 179.12,225.68 165.26,181.59 144.93,138.69 L 136.94,121.88 154.8,116 C 199.45,101.19 222.71,93.43 222.95,93.31 L 237.28,88.49 Z M 237.28,88.49" />
        <path id="canvas1-bezier12" stroke="none" fill="#FFC239" d="M 356.3,424.1 C 390.97,422.34 417.64,414.47 435.38,400.71 451.01,388.6 459.94,371.79 461.23,352.16 462.4,333.35 456.29,311.72 444.54,292.8 433.5,274.81 419.75,262.82 408,260.71 405.89,260.24 390.97,256.95 373.81,256.95 362.88,256.95 353.25,258.24 345.26,260.94 L 323.88,268.11 344.91,276.22 C 347.26,277.16 350.67,279.16 351.96,285.63 355.6,302.79 342.32,337.47 313.77,366.03 300.02,379.79 295.21,391.43 298.97,401.77 305.55,419.76 335.86,422.58 353.96,424.22 L 355.6,424.34 356.3,424.1 Z M 356.3,424.1" />
        <path id="canvas1-bezier13" stroke="none" fill="#000000" d="M 373.69,264.94 L 373.46,264.94 C 364.18,264.94 357.36,273.76 359.59,282.81 364.88,304.08 348.55,342.52 319.41,371.68 281.58,409.53 331.98,413.99 354.66,415.99 355.36,416.11 356.07,416.11 356.77,415.99 512.93,407.41 440.43,274.58 406.24,268.58 406.36,268.58 391.08,264.94 373.69,264.94 Z M 373.69,248.83 C 391.32,248.83 406.83,252.13 409.53,252.71 423.51,255.42 439.14,268.7 451.36,288.57 458.76,300.56 470.98,324.77 469.22,352.75 467.81,374.85 457.82,393.66 440.31,407.18 421.16,421.99 392.96,430.45 356.66,432.22 L 354.43,432.22 353.25,432.1 C 333.16,430.33 299.67,427.28 291.33,404.36 289.45,399.3 288.27,391.07 292.74,380.85 295.68,374.26 300.61,367.44 308.01,360.16 320.35,347.81 330.69,333 337.39,318.31 343.03,305.73 345.5,294.09 344.09,287.16 343.5,284.22 342.56,283.87 341.97,283.63 L 337.39,281.87 C 324.82,277.05 325.17,259.06 337.98,254.83 L 342.68,253.3 C 351.49,250.25 361.94,248.83 373.69,248.83 Z M 373.69,248.83" />
        <path fill="#FFFFFF" d="M78.44999999999999 269.55a18.6 18.6 0 1 0 37.2 0a18.6 18.6 0 1 0 -37.2 0z"/>
</svg>