<svg t="1623581421419" class="icon" viewBox="0 0 1024 1024" version="1.1" xmlns="http://www.w3.org/2000/svg" p-id="31931" xmlns:xlink="http://www.w3.org/1999/xlink" width="200" height="200">
    <path fill="#FFFFFF" d="M807 280a57 57 0 1 0 114 0a57 57 0 1 0 -114 0z"/>
    <path fill="#000000" d="M837 271.5a20 20.5 0 1 0 40 0a20 20.5 0 1 0 -40 0z"/>
    <path opacity="0.3" stroke="none" fill="#FF5A08" d="M 268.26,210.32 C 277.59,210.32 289.25,210.32 298.58,212.65 300.91,238.33 300.91,266.35 296.25,292.03 300.91,317.71 300.91,343.39 298.58,371.4 289.25,371.4 277.59,373.74 268.26,373.74 256.59,394.75 240.27,415.76 221.61,434.44 160.96,495.14 79.32,520.82 2.35,511.48 -6.98,434.44 18.67,352.73 79.32,292.03 21.01,231.33 -4.65,151.95 2.35,72.57 81.65,63.23 160.96,88.92 221.61,149.62 242.6,168.29 256.59,189.3 268.26,210.32 Z M 268.26,210.32" />
    <path stroke="none" fill="#FF5A08" d="M 585.48,0.2 C 762.76,0.2 921.37,147.28 1024,308.37 921.37,460.12 762.76,607.2 585.48,607.2 408.21,607.2 249.6,460.12 146.96,308.37 249.6,147.28 408.21,0.2 585.48,0.2 Z M 865.39,327.05 C 891.05,327.05 912.04,306.03 912.04,280.35 912.04,254.67 891.05,233.66 865.39,233.66 839.73,233.66 818.74,254.67 818.74,280.35 818.74,306.03 839.73,327.05 865.39,327.05 Z M 865.39,327.05" />
</svg>