<svg t="1623581421419" class="icon" viewBox="0 0 1024 1024" version="1.1" xmlns="http://www.w3.org/2000/svg" p-id="31931" xmlns:xlink="http://www.w3.org/1999/xlink" width="200" height="200">
    <path fill="#FFFFFF" d="M103 280a57 57 0 1 0 114 0a57 57 0 1 0 -114 0z"/>
    <path fill="#000000" d="M147 271.5a20 20.5 0 1 0 40 0a20 20.5 0 1 0 -40 0z"/>
    <path stroke="none" fill="#8A2BE2" d="M 755.74,210.32 C 746.41,210.32 734.75,210.32 725.42,212.65 723.09,238.33 723.09,266.35 727.75,292.03 723.09,317.71 723.09,343.39 725.42,371.4 734.75,371.4 746.41,373.74 755.74,373.74 767.41,394.75 783.73,415.76 802.39,434.44 863.04,495.14 944.68,520.82 1021.65,511.48 1030.98,434.44 1005.33,352.73 944.68,292.03 1002.99,231.33 1028.65,151.95 1021.65,72.57 942.35,63.23 863.04,88.92 802.39,149.62 781.4,168.29 767.41,189.3 755.74,210.32 Z M 755.74,210.32" />
    <path stroke="none" fill="#4B0082" d="M 438.52,0.2 C 261.24,0.2 102.63,147.28 -0,308.37 102.63,460.12 261.24,607.2 438.52,607.2 615.79,607.2 774.4,460.12 877.04,308.37 774.4,147.28 615.79,0.2 438.52,0.2 Z M 158.61,327.05 C 132.95,327.05 111.96,306.03 111.96,280.35 111.96,254.67 132.95,233.66 158.61,233.66 184.27,233.66 205.26,254.67 205.26,280.35 205.26,306.03 184.27,327.05 158.61,327.05 Z M 158.61,327.05" />
</svg>