<svg t="1623580300532" class="icon" viewBox="0 0 1024 1024" version="1.1" xmlns="http://www.w3.org/2000/svg" p-id="31764" xmlns:xlink="http://www.w3.org/1999/xlink" width="200" height="200">
    <path stroke="none" fill="#E85642" d="M 698.88,752.18 C 698.88,752.18 612.14,943.69 587.47,770.28 L 698.88,752.18 Z M 698.88,752.18" />
    <path stroke="none" fill="#E85642" d="M 342.89,204.77 L 342.94,205.46 C 350.01,305.07 456.98,375.38 581.87,362.51 706.76,349.64 802.27,258.45 795.2,158.84 L 795.2,158.84 795.2,158.84 C 788.13,59.23 681.16,-11.08 556.27,1.79 431.38,14.66 335.87,105.85 342.94,205.46 L 342.89,204.77 Z M 342.89,204.77" />
    <path stroke="none" fill="#E85642" d="M 45.42,633.56 L 151.73,556.8 C 164.34,547.64 171.7,533.74 171.61,519.04 L 171.23,440.89 170.77,362.66 C 170.68,347.97 163.17,334.5 150.45,326.08 L 43.26,255.5 C 25.37,243.77 0.02,256.25 0.23,276.77 0.23,276.77 16.63,364.51 17.11,445.27 17.58,526.04 2.24,614.7 2.24,614.7 2.27,635.4 27.68,646.49 45.42,633.56 Z M 45.42,633.56" />
    <path stroke="none" fill="#FF674B" d="M 123.33,442.14 L 123.32,444.02 C 123.31,633.36 324.85,780.09 573.49,771.71 822.12,763.34 1023.69,603.06 1023.7,413.71 L 1023.7,413.71 1023.7,413.71 C 1023.71,224.36 822.15,77.64 573.52,86.01 324.89,94.38 123.32,254.66 123.32,444.02 L 123.33,442.14 Z M 123.33,442.14" />
    <path stroke="none" fill="#F2AF55" d="M 758.41,111.38 C 670.84,187.26 615.52,296.12 616.18,415.78 616.9,544.74 682.25,657.18 782.74,727.44 926.82,666.08 1024.99,548.26 1024.17,415.82 1023.48,277.11 914.45,160.89 758.41,111.38 Z M 758.41,111.38" />
    <path stroke="none" fill="#F2F2F2" d="M 341.89,270.21 L 341.9,270.03 C 341.83,258.02 351.57,247.93 363.58,247.58 L 544.04,242.35 C 556.06,242.01 565.93,251.53 565.99,263.55 L 565.99,263.72 C 566.06,275.73 556.32,285.82 544.31,286.17 L 363.84,291.4 C 351.84,291.75 341.96,282.22 341.89,270.21 Z M 343.83,594.2 L 343.83,594.03 C 343.76,582.02 353.51,571.93 365.51,571.58 L 545.98,566.35 C 557.99,566 567.86,575.53 567.93,587.55 L 567.93,587.72 C 568,599.73 558.25,609.82 546.24,610.17 L 365.78,615.4 C 353.76,615.75 343.9,606.22 343.83,594.2 Z M 233.44,435.45 L 233.43,435.29 C 233.36,423.27 243.12,413.17 255.12,412.83 L 482.1,406.26 C 494.11,405.91 503.97,415.44 504.04,427.45 L 504.05,427.62 C 504.12,439.63 494.36,449.73 482.36,450.08 L 255.3,456.57 C 243.29,456.91 233.42,447.38 233.44,435.45 Z M 233.44,435.45" />
    <path stroke="none" fill="#D37B2D" d="M764.93 327.04a42.33 43.26 0 1 0 84.66 0a42.33 43.26 0 1 0 -84.66 0z" />
</svg>