<?xml version="1.0" standalone="no"?><!DOCTYPE svg PUBLIC "-//W3C//DTD SVG 1.1//EN" "http://www.w3.org/Graphics/SVG/1.1/DTD/svg11.dtd"><svg t="1623580300532" class="icon" viewBox="0 0 1024 1024" version="1.1" xmlns="http://www.w3.org/2000/svg" p-id="31764" xmlns:xlink="http://www.w3.org/1999/xlink" width="200" height="200"><defs><style type="text/css"></style></defs><path d="M816.4 591.2s59.7 163.6-57.1 74.7l57.1-74.7z" fill="#E85642" p-id="31765"></path><path d="M277.963685 469.954715a151.3 189.6 40.973 1 0 248.642695-286.303075 151.3 189.6 40.973 1 0-248.642695 286.303075Z" fill="#E85642" p-id="31766"></path><path d="M348.6 896l19.6-106.8c2.3-12.7-1.4-25.2-10.1-33.9L311.9 709l-46.3-46.3c-8.7-8.7-21.2-12.4-33.9-10.1l-106.8 19.6c-17.8 3.3-25.9 25.3-13.7 37.4 0 0 61.6 42.8 109.4 90.6s90.6 109.4 90.6 109.4c12.2 12.3 34.2 4.3 37.4-13.6z" fill="#E85642" p-id="31767"></path><path d="M283.882275 736.970392a286.6 376.6 44.999 1 0 532.583532-532.602123 286.6 376.6 44.999 1 0-532.583532 532.602123Z" fill="#FF674B" p-id="31768"></path><path d="M475.9 176c-8.7 95.3 21.6 191.7 92.3 262.4 76.2 76.2 182 105.5 284.4 89.6 51.6-119.1 42.1-245.4-36.2-323.6-81.9-82-216.5-88.5-340.5-28.4z" fill="#F2AF55" p-id="31769"></path><path d="M315.8 509.1l-0.1-0.1c-7.1-7.1-7.1-18.7 0-25.8l106.7-106.7c7.1-7.1 18.7-7.1 25.8 0l0.1 0.1c7.1 7.1 7.1 18.7 0 25.8L341.6 509.1c-7.1 7.1-18.7 7.1-25.8 0zM507.3 700.6l-0.1-0.1c-7.1-7.1-7.1-18.7 0-25.8L613.9 568c7.1-7.1 18.7-7.1 25.8 0l0.1 0.1c7.1 7.1 7.1 18.7 0 25.8L533.1 700.6c-7.1 7.1-18.7 7.1-25.8 0zM346.9 669.6l-0.1-0.1c-7.1-7.1-7.1-18.7 0-25.8L481 509.5c7.1-7.1 18.7-7.1 25.8 0l0.1 0.1c7.1 7.1 7.1 18.7 0 25.8L372.6 669.6c-7.1 7.1-18.7 7.1-25.7 0z" fill="#F2F2F2" p-id="31770"></path><path d="M632.1 275.9m-35.9 0a35.9 35.9 0 1 0 71.8 0 35.9 35.9 0 1 0-71.8 0Z" fill="#D37B2D" p-id="31771"></path></svg>