<svg t="1623580300532" class="icon" viewBox="0 0 1024 1024" version="1.1" xmlns="http://www.w3.org/2000/svg" p-id="31764" xmlns:xlink="http://www.w3.org/1999/xlink" width="200" height="200">
    <path stroke="none" fill="#E85642" d="M 325.12,752.18 C 325.12,752.18 411.86,943.69 436.53,770.28 L 325.12,752.18 Z M 325.12,752.18" />
    <path stroke="none" fill="#E85642" d="M 681.11,204.77 L 681.06,205.46 C 673.99,305.07 567.02,375.38 442.13,362.51 317.24,349.64 221.73,258.45 228.8,158.84 L 228.8,158.84 228.8,158.84 C 235.87,59.23 342.84,-11.08 467.73,1.79 592.62,14.66 688.13,105.85 681.06,205.46 L 681.11,204.77 Z M 681.11,204.77" />
    <path stroke="none" fill="#E85642" d="M 978.58,633.56 L 872.27,556.8 C 859.66,547.64 852.3,533.74 852.39,519.04 L 852.77,440.89 853.23,362.66 C 853.32,347.97 860.83,334.5 873.55,326.08 L 980.74,255.5 C 998.63,243.77 1023.98,256.25 1023.77,276.77 1023.77,276.77 1007.37,364.51 1006.89,445.27 1006.42,526.04 1021.76,614.7 1021.76,614.7 1021.73,635.4 996.32,646.49 978.58,633.56 Z M 978.58,633.56" />
    <path stroke="none" fill="#FF674B" d="M 900.67,442.14 L 900.68,444.02 C 900.69,633.36 699.15,780.09 450.51,771.71 201.88,763.34 0.31,603.06 0.3,413.71 L 0.3,413.71 0.3,413.71 C 0.29,224.36 201.85,77.64 450.48,86.01 699.11,94.38 900.68,254.66 900.68,444.02 L 900.67,442.14 Z M 900.67,442.14" />
    <path stroke="none" fill="#F2AF55" d="M 265.59,111.38 C 353.16,187.26 408.48,296.12 407.82,415.78 407.1,544.74 341.75,657.18 241.26,727.44 97.18,666.08 -0.99,548.26 -0.17,415.82 0.52,277.11 109.55,160.89 265.59,111.38 Z M 265.59,111.38" />
    <path stroke="none" fill="#F2F2F2" d="M 682.11,270.21 L 682.1,270.03 C 682.17,258.02 672.43,247.93 660.42,247.58 L 479.96,242.35 C 467.94,242.01 458.07,251.53 458.01,263.55 L 458.01,263.72 C 457.94,275.73 467.68,285.82 479.69,286.17 L 660.16,291.4 C 672.16,291.75 682.04,282.22 682.11,270.21 Z M 680.17,594.2 L 680.17,594.03 C 680.24,582.02 670.49,571.93 658.49,571.58 L 478.02,566.35 C 466.01,566 456.14,575.53 456.07,587.55 L 456.07,587.72 C 456,599.73 465.75,609.82 477.76,610.17 L 658.22,615.4 C 670.24,615.75 680.1,606.22 680.17,594.2 Z M 790.56,435.45 L 790.57,435.29 C 790.64,423.27 780.88,413.17 768.88,412.83 L 541.9,406.26 C 529.89,405.91 520.03,415.44 519.96,427.45 L 519.95,427.62 C 519.88,439.63 529.64,449.73 541.64,450.08 L 768.7,456.57 C 780.71,456.91 790.58,447.38 790.56,435.45 Z M 790.56,435.45" />
    <path stroke="none" fill="#D37B2D" d="M174.41,327.04a42.33 43.26 0 1 0 84.66 0a42.33 43.26 0 1 0 -84.66 0z" />
</svg>