<?xml version="1.0" standalone="no"?><!DOCTYPE svg PUBLIC "-//W3C//DTD SVG 1.1//EN" "http://www.w3.org/Graphics/SVG/1.1/DTD/svg11.dtd"><svg t="1626634411006" class="icon" viewBox="0 0 1024 1024" version="1.1" xmlns="http://www.w3.org/2000/svg" p-id="1430" xmlns:xlink="http://www.w3.org/1999/xlink" width="200" height="200"><defs><style type="text/css"></style></defs><path d="M70.4 516.8a374.4 136 0 1 0 748.8 0 374.4 136 0 1 0-748.8 0Z" fill="#FFFFFF" p-id="1432"></path><path d="M444.8 380.8c206.4 0 374.4 136 374.4 136s-168 136-374.4 136S70.4 592 70.4 516.8s168-136 374.4-136m0-40C240 340.8 32 401.6 32 516.8s208 174.4 412.8 174.4c217.6 0 392-139.2 398.4-144 9.6-8 14.4-17.6 14.4-30.4 0-11.2-4.8-22.4-14.4-30.4-6.4-6.4-179.2-145.6-398.4-145.6z" fill="#05498F" p-id="1433"></path><path d="M993.6 620.8c-3.2 0-6.4-1.6-9.6-3.2l-145.6-84.8c-6.4-3.2-9.6-9.6-9.6-16s3.2-12.8 9.6-16l142.4-83.2c9.6-4.8 20.8-1.6 25.6 6.4 4.8 9.6 1.6 20.8-6.4 25.6l-113.6 67.2 118.4 68.8c9.6 4.8 12.8 17.6 6.4 25.6-4.8 6.4-11.2 9.6-17.6 9.6z" fill="#05498F" p-id="1434"></path><path d="M211.2 638.4c25.6-25.6 41.6-60.8 46.4-99.2 4.8-56-17.6-107.2-57.6-140.8" fill="#FFFFFF" p-id="1435"></path><path d="M211.2 657.6c-4.8 0-9.6-1.6-12.8-4.8-8-8-8-19.2 0-27.2 24-24 36.8-54.4 40-86.4 4.8-48-14.4-94.4-49.6-124.8-8-6.4-9.6-19.2-1.6-27.2 6.4-8 19.2-9.6 27.2-1.6 46.4 38.4 70.4 97.6 64 158.4-4.8 41.6-22.4 80-51.2 110.4-6.4 1.6-11.2 3.2-16 3.2z" fill="#05498F" p-id="1436"></path><path d="M486.4 360c28.8 0 52.8 22.4 52.8 51.2 0 28.8-24 51.2-52.8 51.2" fill="#FFFFFF" p-id="1437"></path><path d="M486.4 481.6c-11.2 0-19.2-8-19.2-19.2s8-19.2 19.2-19.2c17.6 0 33.6-14.4 33.6-32s-14.4-32-33.6-32c-11.2 0-19.2-8-19.2-19.2s8-19.2 19.2-19.2c40 0 72 32 72 70.4 0 38.4-32 70.4-72 70.4z" fill="#05498F" p-id="1438"></path><path d="M486.4 464c28.8 0 52.8 22.4 52.8 51.2s-24 51.2-52.8 51.2" fill="#FFFFFF" p-id="1439"></path><path d="M486.4 585.6c-11.2 0-19.2-8-19.2-19.2s8-19.2 19.2-19.2c17.6 0 33.6-14.4 33.6-32s-14.4-32-33.6-32c-11.2 0-19.2-8-19.2-19.2s8-19.2 19.2-19.2c40 0 72 32 72 70.4s-32 70.4-72 70.4z" fill="#05498F" p-id="1440"></path><path d="M486.4 569.6c28.8 0 52.8 22.4 52.8 51.2S515.2 672 486.4 672" fill="#FFFFFF" p-id="1441"></path><path d="M486.4 691.2c-11.2 0-19.2-8-19.2-19.2s8-19.2 19.2-19.2c17.6 0 33.6-14.4 33.6-32s-14.4-32-33.6-32c-11.2 0-19.2-8-19.2-19.2s8-19.2 19.2-19.2c40 0 72 32 72 70.4 0 38.4-32 70.4-72 70.4z" fill="#05498F" p-id="1442"></path><path d="M628.8 360c28.8 0 52.8 22.4 52.8 51.2 0 28.8-24 51.2-52.8 51.2" fill="#FFFFFF" p-id="1443"></path><path d="M628.8 481.6c-11.2 0-19.2-8-19.2-19.2s8-19.2 19.2-19.2c17.6 0 33.6-14.4 33.6-32s-14.4-32-33.6-32c-11.2 0-19.2-8-19.2-19.2s8-19.2 19.2-19.2c40 0 72 32 72 70.4 0 38.4-32 70.4-72 70.4z" fill="#05498F" p-id="1444"></path><path d="M628.8 464c28.8 0 52.8 22.4 52.8 51.2s-24 51.2-52.8 51.2" fill="#FFFFFF" p-id="1445"></path><path d="M628.8 585.6c-11.2 0-19.2-8-19.2-19.2s8-19.2 19.2-19.2c17.6 0 33.6-14.4 33.6-32s-14.4-32-33.6-32c-11.2 0-19.2-8-19.2-19.2s8-19.2 19.2-19.2c40 0 72 32 72 70.4s-32 70.4-72 70.4z" fill="#05498F" p-id="1446"></path><path d="M628.8 569.6c28.8 0 52.8 22.4 52.8 51.2S657.6 672 628.8 672" fill="#FFFFFF" p-id="1447"></path><path d="M628.8 691.2c-11.2 0-19.2-8-19.2-19.2s8-19.2 19.2-19.2c17.6 0 33.6-14.4 33.6-32s-14.4-32-33.6-32c-11.2 0-19.2-8-19.2-19.2s8-19.2 19.2-19.2c40 0 72 32 72 70.4 0 38.4-32 70.4-72 70.4z" fill="#05498F" p-id="1448"></path><path d="M344 360c28.8 0 52.8 22.4 52.8 51.2 0 28.8-24 51.2-52.8 51.2" fill="#FFFFFF" p-id="1449"></path><path d="M344 481.6c-11.2 0-19.2-8-19.2-19.2s8-19.2 19.2-19.2c17.6 0 33.6-14.4 33.6-32s-14.4-32-33.6-32c-11.2 0-19.2-8-19.2-19.2s8-19.2 19.2-19.2c40 0 72 32 72 70.4 0 38.4-32 70.4-72 70.4z" fill="#05498F" p-id="1450"></path><path d="M344 464c28.8 0 52.8 22.4 52.8 51.2s-24 51.2-52.8 51.2" fill="#FFFFFF" p-id="1451"></path><path d="M344 585.6c-11.2 0-19.2-8-19.2-19.2s8-19.2 19.2-19.2c17.6 0 33.6-14.4 33.6-32s-14.4-32-33.6-32c-11.2 0-19.2-8-19.2-19.2s8-19.2 19.2-19.2c40 0 72 32 72 70.4s-32 70.4-72 70.4z" fill="#05498F" p-id="1452"></path><path d="M344 569.6c28.8 0 52.8 22.4 52.8 51.2S372.8 672 344 672" fill="#FFFFFF" p-id="1453"></path><path d="M344 691.2c-11.2 0-19.2-8-19.2-19.2s8-19.2 19.2-19.2c17.6 0 33.6-14.4 33.6-32s-14.4-32-33.6-32c-11.2 0-19.2-8-19.2-19.2s8-19.2 19.2-19.2c40 0 72 32 72 70.4 0 38.4-32 70.4-72 70.4z" fill="#05498F" p-id="1454"></path><path d="M81.545264 532.970528a22.4 22.4 0 1 0 38.752116-22.47918 22.4 22.4 0 1 0-38.752116 22.47918Z" fill="#05498F" p-id="1455"></path><path d="M137.6 556.8c30.4 24 52.8 32 52.8 32" fill="#FFFFFF" p-id="1456"></path><path d="M190.4 606.4c-1.6 0-4.8 0-6.4-1.6-1.6 0-25.6-9.6-59.2-33.6-8-6.4-9.6-19.2-3.2-27.2 6.4-8 19.2-9.6 27.2-3.2 27.2 20.8 48 28.8 48 28.8 9.6 3.2 16 14.4 11.2 24-1.6 8-9.6 12.8-17.6 12.8z" fill="#05498F" p-id="1457"></path></svg>