<svg version="1.1" xmlns="http://www.w3.org/2000/svg" xmlns:xlink="http://www.w3.org/1999/xlink" width="469" height="286" xml:space="preserve" id="icontest3xCanvas">
    <path id="icontest3xCanvas-bezier2" stroke="none" fill="rgb(250, 190, 44)" d="M 71.5,22.58 C 72.56,22.05 73.09,21.52 74.16,20.98 117.2,-0.27 171.39,-0.27 218.15,0.26 285.64,1.32 366.93,23.11 361.09,106 363.21,75.18 440.79,1.32 466.3,45.43 476.39,62.96 455.67,84.22 444.51,96.44 406.78,137.88 420.07,157.54 434.95,193.14 449.82,228.74 395.63,219.18 377.56,200.05 359.49,180.92 481.71,320.14 259.6,277.63 259.6,277.63 -33.18,314.82 3.49,174.01 16.77,122.47 20.49,50.21 71.5,22.58 Z M 71.5,22.58" />
    <path id="icontest3xCanvas-bezier4" stroke="none" fill="rgb(249, 130, 30)" d="M 148.55,6.48 C 222.94,37.83 220.28,82.48 187.33,124.73 168.21,149.18 142.7,170.97 140.04,198.07 136.86,225.18 170.86,245.11 183.08,270.35 188.4,281.25 154.92,286.03 149.61,275.14 138.98,252.81 110.82,234.48 105.51,211.09 100.72,187.71 115.07,164.06 133.67,142.8 170.86,100.81 206.46,54.04 123.57,18.96 106.57,11.52 131.54,-0.7 148.55,6.48 L 148.55,6.48 Z M 148.55,6.48" />
    <path id="icontest3xCanvas-bezier6" stroke="none" fill="rgb(249, 130, 30)" d="M 303.7,16.85 C 328.67,34.45 343.02,53.22 340.36,76.1 337.71,98.68 318.05,119.5 299.45,139.15 279.79,159.98 259.07,179.63 261.72,203.97 263.85,223.62 282.98,243.27 293.07,262.04 302.64,279.05 254.29,286.38 244.72,269.37 235.16,252.36 221.87,235.65 214.96,218.05 207.53,198.69 212.31,179.63 224,161.44 250.57,121.56 327.61,78.15 268.63,36.5 248.97,22.72 284.04,2.78 303.7,16.85 L 303.7,16.85 Z M 303.7,16.85" />
    <path id="icontest3xCanvas-bezier8" stroke="none" fill="rgb(135, 52, 36)" d="M 45.46,150.1 C 45.46,156.48 50.78,161.79 57.15,161.79 63.53,161.79 68.84,156.48 68.84,150.1 68.84,143.73 63.53,138.41 57.15,138.41 50.24,138.95 45.46,143.73 45.46,150.1 Z M 45.46,150.1" />
    <path id="icontest3xCanvas-bezier10" stroke="none" fill="rgb(249, 130, 30)" d="M 417.04,96.45 C 408.89,107.9 400.13,117.6 394.05,121.9 387.97,126.19 385.49,124.43 387.55,117.28 389.62,110.12 395.9,98.66 404.05,87.21 412.19,75.76 420.95,66.06 427.04,61.76 433.12,57.47 434.57,57.77 433.53,66.38 432.5,75 425.18,85 417.04,96.45 Z M 417.04,96.45" />
    <path id="icontest3xCanvas-bezier12" stroke="none" fill="rgb(249, 130, 30)" d="M 393.67,188.55 C 388.85,180.11 381.86,168.63 385.44,165.61 389.03,162.58 398.54,167.94 406.67,177.59 414.81,187.24 418.49,197.51 414.9,200.54 415,206.5 398.5,197 393.67,188.55 Z M 393.67,188.55" />
</svg>