<svg version="1.1" xmlns="http://www.w3.org/2000/svg" xmlns:xlink="http://www.w3.org/1999/xlink" width="468" height="357" xml:space="preserve" id="canvas1">
    <path id="canvas1-bezier2" stroke="none" fill="rgb(255, 137, 49)" d="M 39.5,167 C 39.5,167 23,151 17,152 11,153 -8.96,169.08 16.18,189.03 1.38,209.54 -3.01,221.18 34.22,217.17 43.49,245.87 120.59,365.14 267.14,352.43 290.81,350.17 325.84,345.14 363.81,319.27 380.42,301.53 355.39,278.87 355.39,278.87 L 350.98,258.81 C 350.98,258.81 432.4,295.37 445.9,287.46 459.4,279.55 465,270.23 443.58,232.03 435.9,198.59 452.85,107.85 467.99,81.75 453.75,56.95 443.53,47.57 337.03,97.06 336.29,67.12 375.05,7.46 320.81,0.45 287.48,4.8 142.06,65.31 76.75,130.51 57.5,145.5 39.5,167 39.5,167 Z M 39.5,167" />
    <path id="canvas1-bezier4" stroke="none" fill="rgb(25, 25, 25)" d="M 8.89,192.82 C 9.06,192.6 9.29,192.32 9.52,192.03 9.68,191.81 9.91,191.58 10.08,191.3 6.01,186.89 3.13,182.32 1.44,177.57 -0.2,172.94 -0.65,168.36 0.14,164.12 0.36,162.77 0.76,161.47 1.21,160.23 3.98,152.94 10.42,148.19 17.59,148.19 L 17.88,148.19 C 23.02,148.25 27.71,150.73 31.21,155.14 35.5,159.44 37.82,161.02 38.89,161.64 40.02,160.62 41.77,158.53 43.19,156.78 46.8,152.49 51.72,146.61 59.18,140.45 64.09,136.38 69.01,132.15 74.2,127.63 98.44,106.55 128.61,80.34 203.87,38.36 204.03,38.25 204.15,38.19 204.32,38.14 226.86,25.59 249.23,15.88 270.87,9.21 272.51,8.7 274.2,8.25 275.84,7.74 292.79,2.94 308.27,0.4 320.81,0.4 336.29,0.4 346.01,4.29 349.8,12.03 352.4,17.34 354.49,27.46 347.31,58.87 344.32,71.98 340.48,85.65 337.03,97.01 359.23,84.35 393.7,66.72 426.86,57.68 431.44,56.44 435.5,55.65 439.23,55.31 440.64,55.2 441.94,55.14 443.24,55.14 452,55.14 458.67,58.02 462.96,63.79 473.02,77.12 466.29,100.73 457.82,130.56 452.17,150.45 445.73,173.05 444.83,192.49 443.58,219.04 450.7,237.4 455.9,250.85 460.31,262.2 463.75,271.13 459.4,279.49 455.5,286.95 446.97,289.77 440.81,291.24 438.67,291.75 436.29,292.03 433.64,292.03 419.68,292.03 399.68,284.8 378.5,277.18 370.14,274.18 362.17,271.3 355,269.04 360.81,277.23 365.22,284.63 368.16,291.24 373.53,303.39 373.98,313.16 369.4,320.34 L 369.29,320.56 369.18,320.73 C 360.7,332.54 343.75,341.75 318.67,348.08 309.63,350.34 299.8,352.2 289.35,353.56 274.2,355.54 257.82,356.61 240.7,356.61 238.39,356.61 236.01,356.61 233.7,356.55 221.44,356.33 209.4,355.25 197.65,353.28 184.15,351.02 171.04,347.63 158.44,343.05 137.76,335.59 118.39,325.03 100.76,311.69 60.93,281.53 42.62,247.01 36.58,233.56 L 35.96,232.15 C 33.87,227.46 31.83,222.99 30.7,221.19 L 30.36,221.19 C 29.63,221.19 28.67,221.24 27.59,221.24 26.01,221.3 24.03,221.36 21.72,221.36 19.8,221.36 17.88,221.3 15.9,221.19 10.02,220.9 5.84,219.04 3.36,215.76 2.85,215.08 2.4,214.35 2.06,213.5 0.81,210.79 0.76,208.08 1.38,205.54 2.57,200.9 5.96,196.55 8.89,192.82 Z M 33.58,212.71 C 37.09,215.48 40.02,220.17 43.92,228.59 44.15,229.04 44.32,229.49 44.54,229.94 49.18,240.23 56.07,252.09 65.33,264.24 69.06,269.1 73.13,273.95 77.59,278.81 80.59,282.03 83.7,285.25 87.03,288.47 94.49,295.65 102.79,302.6 112,309.04 116.07,311.92 120.36,314.69 124.77,317.34 129.23,320 133.81,322.54 138.61,324.97 142.23,326.78 145.9,328.47 149.68,330.11 152.23,331.19 154.77,332.26 157.37,333.28 161.27,334.8 165.33,336.21 169.46,337.51 179.06,340.56 191.77,343.25 202.5,345 203.29,345.11 246,271 237.5,182 230.16,105.14 205.29,39.5 208,39.5 219.76,39.46 268.97,12.04 280,11 282.72,10.74 318,118 317,198.5 316,279 289.66,344.57 292.28,344.18 325.39,339.32 351.89,329.6 361.94,315.54 363.19,313.62 363.7,311.36 363.75,308.81 363.87,297.97 354.15,282.26 345.11,270.17 344.09,268.81 343.64,267.29 343.64,265.82 343.75,262.03 346.92,258.64 350.98,258.81 351.55,258.81 352.17,258.93 352.79,259.1 377.99,266.38 414.54,282.99 433.47,283.11 435.45,283.11 437.2,282.94 438.72,282.6 446.18,280.79 450.08,278.42 451.66,275.08 457.54,263.39 433.81,240.28 436.07,191.86 436.8,175.42 441.15,157.46 445.84,140.34 445.84,140.23 445.9,140.17 445.9,140.06 446.07,139.49 446.18,138.93 446.35,138.42 450.42,123.79 454.66,109.83 457.09,98.02 457.09,97.91 457.14,97.85 457.14,97.74 L 457.48,96.05 C 457.54,95.76 457.59,95.54 457.65,95.25 457.71,95.03 457.76,94.8 457.76,94.52 461.1,76.05 459.12,63.62 443.13,63.62 441.66,63.62 440.08,63.73 438.39,63.95 435.62,64.29 432.51,64.92 429.06,65.82 390.53,76.27 349.63,99.15 331.32,110.11 330.59,110.56 329.85,110.73 329.18,110.73 326.52,110.73 324.2,108.14 325.16,105.2 332.57,81.92 348.39,28.76 341.89,15.59 340.7,13.45 336.5,7.5 323,7.5 309.5,7.5 298.5,8.5 274.5,14.5 255,23.75 242.67,29.42 237.5,31.5 187.2,51.78 158.21,71.37 148.78,81.69 198.95,182.88 162.9,308.98 160.7,315.08 158.5,321.19 156.13,326.5 153.87,331.81 131.89,322.88 113.07,310.9 97.48,297.74 98.95,294.41 100.31,291.02 101.55,287.68 103.24,288.98 100.25,292.43 101.49,287.63 112.85,256.78 114.6,224.63 109.06,191.58 121.55,189.15 131.04,178.14 131.04,164.92 131.1,149.94 118.95,137.8 103.92,137.8 100.76,137.8 97.71,138.36 94.88,139.32 93.24,134.86 91.49,130.4 89.63,125.93 80.42,133.79 72.68,140.79 64.66,147.34 64.2,147.74 63.75,148.08 63.3,148.47 L 63.24,148.53 C 53.7,156.67 49.01,164.18 44.88,168.02 44.83,168.08 44.71,168.14 44.66,168.25 44.6,168.31 44.49,168.36 44.43,168.47 44.26,168.59 44.15,168.76 43.98,168.87 L 43.92,168.87 C 42.4,170.11 40.87,170.79 39.18,170.79 37.37,170.79 35.33,170 32.85,168.31 30.53,166.72 27.82,164.35 24.49,161.02 24.32,160.85 24.2,160.62 24.03,160.45 23.19,159.38 22.23,158.59 21.27,158.02 20.02,157.34 18.78,157.01 17.48,157.01 11.77,157.01 6.63,163.62 9.06,172.88 9.12,172.99 9.12,173.11 9.18,173.22 9.23,173.33 9.23,173.45 9.29,173.56 9.35,173.73 9.4,173.95 9.46,174.12 L 9.46,174.18 C 10.31,176.67 11.66,179.32 13.75,182.09 L 13.7,182.03 C 14.43,183.05 15.28,184.01 16.18,185.03 17.45,186.42 18.79,187.74 20.19,188.98 20.53,189.27 20.7,189.66 20.7,190.17 20.7,193.84 11.66,201.75 10.02,207.12 9.85,207.63 9.8,208.14 9.74,208.59 9.68,210.73 11.38,212.2 16.29,212.49 25.9,212.99 30.53,211.92 33.58,212.71 Z M 33.58,212.71" />
    <path id="canvas1-oval2" stroke="none" fill="rgb(255, 255, 255)" d="M77 165a27 27 0 1 0 54 0a27 27 0 1 0 -54 0z" />
    <path id="canvas1-bezier6" fill-rule="evenodd" stroke="none" fill="rgb(0, 0, 0)" d="M 97,150 C 89.82,150 84,156.04 84,163.5 84,170.96 89.82,177 97,177 104.18,177 110,170.96 110,163.5 110,156.04 104.18,150 97,150 Z M 96.5,156 C 100.09,156 103,158.91 103,162.5 103,166.09 100.09,169 96.5,169 92.91,169 90,166.09 90,162.5 90,158.91 92.91,156 96.5,156 Z M 96.5,156" />
</svg>